<?xml version="1.0" encoding="utf-8"?>
<!-- Generator: Adobe Illustrator 22.0.0, SVG Export Plug-In . SVG Version: 6.00 Build 0)  -->
<svg version="1.1" id="图层_1" xmlns="http://www.w3.org/2000/svg" xmlns:xlink="http://www.w3.org/1999/xlink" x="0px" y="0px"
	 viewBox="0 0 800 600" style="enable-background:new 0 0 800 600;" xml:space="preserve">
<style type="text/css">
	.st0{fill:#FCFDFC;}
	.st1{fill:#02924B;}
	.st2{fill:#6BC336;}
	.st3{fill:#02924A;}
	.st4{fill:#6BC335;}
</style>
<g>
	<g>
		<path class="st0" d="M129.6,66.9c120.4,0,240.9,0,361.3,0c0,117.2,0,234.4,0,351.7c-120.4,0-240.9,0-361.3,0
			C129.6,301.3,129.6,184.1,129.6,66.9z M249.2,401.5c-8.1-9.7-15.8-17.6-22-26.6c-16.8-24.5-24.3-51.2-14.8-80.6
			c8.6-26.3,27.7-43.2,52.4-53.2c27.6-11.2,55.7-21.4,84.1-30.6c38.6-12.5,48.6-49.6,41.8-77.3c-7.7-31.5-30.2-48-59.9-56.5
			c-5.3-1.5-10.7-2.4-16.1-3.6c4,4.5,8.2,7.8,12.5,10.9c25.1,18,30.1,70.7-9.4,85.1c-5,1.8-9.8,4.2-14.8,6.1
			c-17.5,6.4-35.2,12.4-52.7,19.1c-68.6,26.3-83.6,101-65.5,150.2C195.9,374.2,217.9,392.2,249.2,401.5z M375.1,85.5
			c1.8,1.9,3.7,3.6,5.2,5.7c8.1,11.3,17.5,21.9,23.8,34.1c20.5,40,8.8,83.1-28.4,108c-21.4,14.3-45.6,22.4-69.8,30.4
			c-10.4,3.5-21,6.6-31.4,10c-30.4,9.8-45.3,31.7-44.8,65.5c0.6,35.6,41,72.9,77.2,70.4c-3.4-2.5-6.3-4.7-9.3-6.8
			c-27-19-32-69.3,2.1-85.1c6.8-3.2,13.6-6.4,20.6-9.1c17.8-6.7,36-12.3,53.5-19.6c33.2-13.8,55.8-37.6,65.1-72.8
			c9.5-36.1,7.8-70.9-16.1-101.7C410.7,99.1,394.7,89.4,375.1,85.5z M170.5,336.9c-2.1-10.3-4.6-20.6-6.2-31.1
			c-4.3-28.2-3.3-56.1,13-80.5c26.2-39.3,63.9-61.5,110.1-69.8c14.4-2.6,28.9-5.6,37.1-19.5c13.1-22.2,0.4-48.8-25.9-56.4
			c-17.1-4.9-33.6-2.8-49.6,3c-45.6,16.4-77.1,48.4-96.7,92.1c-15,33.2-19,67.7-9.8,103.5C147.9,299.3,157.3,318.6,170.5,336.9z
			 M449.2,145.7c2.7,14.5,5.7,26.7,7.2,39c4.1,34-2.2,65-26.3,91.1c-23.6,25.6-52.1,42.6-85.9,50.7c-9.6,2.3-19.5,3.8-28.9,6.8
			c-13,4-21.5,12.9-24.1,26.6c-2.7,14.4,1.7,26.7,13.2,35.7c16.6,13,35.5,13.5,55.1,9.2c32-7.1,57.3-25.2,78.2-49.4
			c41-47.5,54.9-101.5,35.5-162.3C467.9,176.8,460.2,161.7,449.2,145.7z"/>
		<path class="st1" d="M345.3,432.4c-31.3-9.3-53.3-27.3-64.3-57.1c-18.1-49.2-3.1-123.9,65.5-150.2c17.4-6.7,35.1-12.7,52.7-19.1
			c5-1.8,9.8-4.3,14.8-6.1c39.5-14.4,34.5-67.1,9.4-85.1c-4.3-3.1-8.5-6.4-12.5-10.9c5.4,1.2,10.8,2.1,16.1,3.6
			c29.6,8.5,52.2,25,59.9,56.5c6.8,27.7-3.2,64.9-41.8,77.3c-28.4,9.2-56.5,19.4-84.1,30.6c-24.7,10-43.8,27-52.4,53.2
			c-9.6,29.4-2,56.1,14.8,80.6C329.5,414.8,337.2,422.7,345.3,432.4z"/>
		<path class="st2" d="M471.2,116.4c19.6,3.9,35.6,13.6,47.6,29.1c23.9,30.8,25.6,65.6,16.1,101.7c-9.3,35.2-31.9,59-65.1,72.8
			c-17.5,7.3-35.7,12.9-53.5,19.6c-7,2.6-13.8,5.9-20.6,9.1c-34.1,15.8-29.1,66.1-2.1,85.1c3,2.1,5.9,4.3,9.3,6.8
			c-36.2,2.4-76.6-34.8-77.2-70.4c-0.6-33.8,14.4-55.7,44.8-65.5c10.5-3.4,21-6.5,31.4-10c24.2-8,48.4-16.2,69.8-30.4
			c37.3-24.9,49-68,28.4-108c-6.3-12.2-15.7-22.8-23.8-34.1C474.9,120,473,118.3,471.2,116.4z"/>
		<path class="st3" d="M266.6,367.8c-13.2-18.3-22.7-37.6-28.1-58.7c-9.1-35.7-5.1-70.3,9.8-103.5C268,162,299.4,130,345,113.5
			c16-5.8,32.5-7.9,49.6-3c26.3,7.6,38.9,34.2,25.9,56.4c-8.2,13.9-22.7,16.9-37.1,19.5c-46.2,8.3-83.9,30.5-110.1,69.8
			c-16.3,24.5-17.2,52.4-13,80.5C262,347.2,264.5,357.4,266.6,367.8z"/>
		<path class="st4" d="M545.3,176.6c11,15.9,18.8,31.1,23.9,47.4c19.3,60.9,5.5,114.8-35.5,162.3c-20.9,24.2-46.1,42.3-78.2,49.4
			c-19.6,4.3-38.6,3.8-55.1-9.2c-11.5-9-16-21.3-13.2-35.7c2.6-13.6,11.2-22.5,24.1-26.6c9.4-2.9,19.3-4.5,28.9-6.8
			c33.8-8.1,62.3-25,85.9-50.7c24.1-26.1,30.4-57.2,26.3-91.1C550.9,203.3,548,191.2,545.3,176.6z"/>
	</g>
</g>
</svg>
