<?xml version="1.0" standalone="no"?>
<!DOCTYPE svg PUBLIC "-//W3C//DTD SVG 1.1//EN" "http://www.w3.org/Graphics/SVG/1.1/DTD/svg11.dtd" >
<!--
2013-9-30: Created.
-->
<svg>
<metadata>
Created by iconfont
</metadata>
<defs>

<font id="iconfont" horiz-adv-x="1024" >
  <font-face
    font-family="iconfont"
    font-weight="500"
    font-stretch="normal"
    units-per-em="1024"
    ascent="896"
    descent="-128"
  />
    <missing-glyph />
    
    <glyph glyph-name="-choose" unicode="&#58926;" d="M854.195128 830.9003299999999c57.328683 0 104.248296-46.918589 104.248296-104.265692l0-685.08201c0-57.346079-46.919613-104.248296-104.248296-104.248296L169.095721-62.695667999999955c-57.347103 0-104.248296 46.902216-104.248296 104.248296L64.847425 726.634638c0 57.347103 46.901193 104.265692 104.248296 104.265692M154.193313 743.399463L154.193313 30.21848799999998c212.239845 0 433.932993 0 711.318558 0L865.511871 743.399463M214.569402 315.91739199999995L460.559932 138.894629 214.569402 315.91739199999995ZM238.48628 349.127751l245.997382-177.019922-47.817052-66.449411-245.997382 177.019922 47.817052 66.449411ZM419.644057 118.11128099999996L814.215578 659.810696 419.644057 118.11128099999996ZM781.126586 683.890965l66.171072-48.201815-394.59452-541.696247-66.171072 48.201815 394.59452 541.696247Z"  horiz-adv-x="1024" />

    
    <glyph glyph-name="-xmjd" unicode="&#58946;" d="M512-128C229.226667-128 0 101.22666700000002 0 384 0 666.773333 229.226667 896 512 896s512-229.226667 512-512C1024 101.22666700000002 794.773333-128 512-128zM319.765333 469.568c0 23.253333-19.050667 42.090667-42.56 42.090667-23.509333 0-42.56-18.858667-42.581333-42.090667l0-235.370667c0-23.253333 19.072-42.069333 42.56-42.090667l0 0.021333c23.509333-0.021333 42.581333 18.837333 42.56 42.069333L319.744 469.568zM490.410667 384.234667c0 23.253333-19.050667 42.090667-42.56 42.090667-23.509333 0-42.56-18.837333-42.56-42.090667l0-107.370667c0-23.253333 19.072-42.090667 42.581333-42.090667l0 0c23.509333 0 42.56 18.837333 42.56 42.090667L490.410667 384.234667zM661.098667 469.568c0 23.253333-19.050667 42.090667-42.581333 42.090667-23.509333 0-42.56-18.858667-42.56-42.090667l0-235.370667c0-23.253333 19.072-42.069333 42.581333-42.090667l0 0.021333c23.509333-0.021333 42.56 18.837333 42.56 42.069333L661.098667 469.568zM831.765333 384.234667c0 23.253333-19.072 42.090667-42.581333 42.090667-23.509333 0-42.56-18.837333-42.581333-42.090667l0-107.370667c0.021333-23.253333 19.072-42.090667 42.56-42.090667l0 0c23.509333 0 42.581333 18.837333 42.56 42.090667L831.722667 384.234667z"  horiz-adv-x="1024" />

    
    <glyph glyph-name="-el-prove" unicode="&#58910;" d="M511.706311 831.979918c-247.272733 0-447.725114-200.453405-447.725114-447.725114s200.452381-447.725114 447.725114-447.725114 447.725114 200.453405 447.725114 447.725114S758.979044 831.979918 511.706311 831.979918zM442.636213 596.100676c23.331381 0 42.244126-24.857131 42.244126-55.518454 0-30.66337-18.913768-55.517431-42.244126-55.517431-23.328311 0-42.241057 24.855084-42.241057 55.517431C400.394133 571.2445680000001 419.307901 596.100676 442.636213 596.100676zM505.694387 211.22702800000002c0.163729-2.859118-1.487887-7.592932-6.715959-8.233522-7.65433-1.115404-15.260565-1.688455-22.538319-1.688455-83.307358 0-152.335501 66.950831-155.280576 149.870356l-13.495362-0.017396-0.24457 0.036839c-3.76065 0.601704-6.072299 2.157129-6.868431 4.617158-1.402953 4.328585 3.03308 8.770757 5.169743 10.905374l35.132148 36.035728c1.983167 1.986237 4.581342 3.060709 7.352455 3.060709 2.768043 0 5.372358-1.079588 7.324826-3.035126l35.95284-35.951817c1.512447-1.512447 6.325056-6.819313 4.662183-11.399631-0.605797-1.674129-2.241041-3.750417-6.577812-4.143367l-16.978696-0.035816c2.87242-54.624085 48.810682-98.555643 103.851253-98.555643 7.17747 0 14.431687 0.743944 21.533432 2.211365l0.260943 0.057305 0.282433 0.00921c2.074242 0 3.682879-0.695848 4.900613-2.001587 2.526543-2.729158 2.332115-7.181563 2.2656-8.045233L505.694387 211.22702800000002zM358.957395 419.690874c0 0 4.593622 36.72339 14.990413 43.655266 10.399861 6.930853 40.365336 11.531638 40.365336 11.531638s19.420305-20.75879 27.676339-20.75879c8.247848 0 27.679409 20.75879 27.679409 20.75879s29.965475-4.601808 40.362266-11.531638c12.236696-8.156774 15.282055-43.655266 15.282055-43.655266L358.957395 419.690874zM521.394974 172.40893100000005c0 0 4.593622 36.72339 14.990413 43.656289 10.399861 6.930853 40.365336 11.531638 40.365336 11.531638s19.420305-20.75879 27.676339-20.75879c8.249895 0 27.679409 20.75879 27.679409 20.75879s29.965475-4.601808 40.362266-11.531638c12.236696-8.156774 15.282055-43.656289 15.282055-43.656289L521.394974 172.40893100000005zM562.831712 293.30130199999996c0 30.661324 18.913768 55.518454 42.241057 55.518454 23.331381 0 42.244126-24.857131 42.244126-55.518454 0-30.66337-18.913768-55.518454-42.244126-55.518454C581.745481 237.78284699999995 562.831712 262.638955 562.831712 293.30130199999996zM727.516472 356.66442199999995l-35.136242-36.037774c-1.983167-1.984191-4.584412-3.060709-7.351432-3.060709-2.765997 0-5.368264 1.076518-7.320733 3.03308l-35.95284 35.954887c-1.512447 1.515516-6.331195 6.819313-4.669346 11.398608 0.60989 1.671059 2.24411 3.749394 6.579859 4.142343l16.984836 0.033769c-2.87856 54.626131-48.814776 98.555643-103.860463 98.555643-7.17747 0-14.422478-0.741897-21.527292-2.207271l-0.260943-0.057305-0.285502-0.008186c-2.071172 0-3.685949 0.694825-4.894474 1.99954-2.532683 2.731204-2.338255 7.18361-2.267647 8.045233l-0.01228 33.697473c-0.163729 2.858094 1.484817 7.592932 6.719028 8.231475 7.65126 1.118474 15.257495 1.688455 22.529109 1.688455 83.313497 0 152.34471-66.949808 155.289786-149.868309l13.487176 0.01842 0.248663-0.040932c3.755534-0.600681 6.069229-2.15406 6.868431-4.614088C734.080981 363.240187 729.648019 358.79801499999996 727.516472 356.66442199999995z"  horiz-adv-x="1024" />

    
    <glyph glyph-name="-el-task-personal" unicode="&#58900;" d="M147.060869 563.1031439999999c0-18.427698 11.443633-33.600259 25.986861-34.465976 10.025331-63.524802 53.759391-111.299899 106.048291-111.299899 52.341089 0 96.019891 47.775096 106.099457 111.299899 0.63138 0 1.153266 0 1.784646 0 15.121396 0 27.249621 15.434527 27.249621 34.465976 0 16.903995-9.556657 31.026644-22.208814 33.991162l0.052189 0c0 0 29.29521 98.856495-32.234145 126.995369-7.401574 85.128843-157.12969 18.322297-157.12969 18.322297-77.069283-40.110533-39.952944-148.020218-39.952944-148.020218l0 0C153.411507 588.825992 147.060869 576.9607570000001 147.060869 563.1031439999999zM174.463985 590.2442940000001c0.208754 0 0.525979 0 0.735757 0l2.206248-0.052189 0 8.004301 7.977695 45.938262c5.039783 7.716752 9.765411 12.416797 9.765411 12.416797 68.144006-2.942005 121.377418 30.922267 121.377418 30.922267 45.780673 35.279504 60.059887-98.908684 60.059887-98.908684l1.52268 0.209778 6.036483 1.209548c0.944512 0.209778 1.889023 0.261966 2.833535 0.261966 5.040806 0 9.818623-2.545986 13.648858-7.272637 4.043083-5.275143 6.405897-12.257162 6.405897-19.868513 0-7.560186-2.362814-14.624069-6.405897-19.793812-3.831258-4.723581-8.609075-7.351432-13.648858-7.351432-0.313132 0-0.735757 0-1.153266 0.081864l-6.876618 0.549515-1.209548-6.798846c-4.619204-29.582759-17.008372-56.305377-35.227316-75.521021-8.764618-9.370415-18.687618-16.773012-29.347398-21.89159-10.918677-5.066389-22.310122-7.742335-34.069957-7.742335-11.655458 0-23.153326 2.675946-34.073026 7.742335-10.602476 5.118578-20.473287 12.521175-29.451776 21.813818-18.005073 19.293415-30.500665 45.989427-35.226293 75.598792l-0.944512 5.853311-5.879917 0.314155c-10.393721 0.709151-19.058055 12.890588-19.058055 27.14422 0 7.611352 2.310625 14.59337 6.458085 19.868513C164.700621 587.697285 169.424202 590.2442940000001 174.463985 590.2442940000001zM590.678432 361.976404L476.49281 361.976404c-17.587564 22.917966-43.943838 42.394552-76.281337 56.409754l-94.235245-158.336168-11.55108 71.16276c7.716752 4.723581 12.809747 13.228279 12.809747 22.889313 0 15.014972-12.126178 27.088962-27.036773 27.088962-14.962783 0-26.984584-12.07399-26.984584-27.088962 0-9.661034 5.040806-18.165732 12.860912-22.889313l-11.338233-69.905116-93.554746 157.077501c-52.867068-22.862707-90.035596-60.293201-97.962126-103.842043l-1.680269 0 0-196.029652 4.357238 0c20.263509-13.547551 108.672048-23.836895 214.827787-23.836895 106.047268 0 194.507996 10.289344 214.824717 23.836895l4.307096 0L499.855914 314.54513799999995l-1.681292 0c0 0.735757-0.316202 1.574868-0.420579 2.203178l92.924389 0 0-269.844821 215.771275 0 0 43.784202L634.565988 90.68769799999995 634.565988 316.74831700000004l171.883719 0 0 45.228087L634.565988 361.976404 634.565988 582.971657l171.883719 0 0 43.757596L590.678432 626.7292540000001 590.678432 361.976404zM817.157583 690.650075l0-159.835312 152.668075 0L969.825658 690.650075 817.157583 690.650075zM943.049828 557.3531869999999l-99.222839 0L843.826989 663.979646l99.222839 0L943.049828 557.3531869999999zM817.157583 256.900254l152.668075 0L969.825658 416.762171 817.157583 416.762171 817.157583 256.900254zM843.826989 390.091742l99.222839 0 0-106.522082-99.222839 0L843.826989 390.091742zM817.157583-9.584029999999984l152.668075 0L969.825658 150.22160599999995 817.157583 150.22160599999995 817.157583-9.584029999999984zM843.826989 123.65964699999995l99.222839 0 0-106.678648-99.222839 0L843.826989 123.65964699999995zM212.997604 553.33671l41.001833 0c7.822153 0 14.123672 6.352685 14.123672 14.174837l0 12.966313 15.485693 0 0-12.966313c0-7.822153 6.30152-14.174837 14.122649-14.174837l41.001833 0c7.769964 0 14.122649 6.352685 14.122649 14.174837l0 25.90909c0 7.795547-6.352685 14.175861-14.122649 14.175861l-41.001833 0c-7.822153 0-14.122649-6.379291-14.122649-14.175861l0-8.795317-15.485693 0 0 8.795317c0 7.795547-6.30152 14.175861-14.123672 14.175861l-41.001833 0c-7.768941 0-14.174837-6.379291-14.174837-14.175861l0-25.90909C198.823789 559.689395 205.229686 553.33671 212.997604 553.33671zM286.759561 593.4206369999999c0 6.089695 4.935406 10.998495 10.972912 10.998495l41.001833 0c5.984295 0 10.920724-4.9088 10.920724-10.998495l0-25.90909c0-6.010901-4.936429-10.9197-10.920724-10.9197l-41.001833 0c-6.036483 0-10.972912 4.9088-10.972912 10.9197L286.759561 593.4206369999999zM202.131115 593.4206369999999c0 6.089695 4.987594 10.998495 10.866489 10.998495l41.001833 0c6.036483 0 10.867512-4.9088 10.867512-10.998495l0-8.795317 0-4.146437 0-12.966313c0-6.010901-4.831029-10.9197-10.867512-10.9197l-41.001833 0c-5.879917 0-10.866489 4.9088-10.866489 10.9197L202.131115 593.4206369999999z"  horiz-adv-x="1024" />

    
    <glyph glyph-name="-yhone" unicode="&#59309;" d="M480 640C427.072 640 384 596.928 384 544S427.072 448 480 448 576 491.072 576 544 532.928 640 480 640zM480 832C214.848 832 0 617.152 0 352S214.848-128 480-128 960 86.84799999999996 960 352 745.152 832 480 832zM736 128c-17.664 0-32 14.336-32 32C704 283.52 603.52 384 480 384S256 283.52 256 160C256 142.336 241.664 128 224 128S192 142.336 192 160c0 120.64 74.688 223.808 180.096 266.624C340.288 455.872 320 497.408 320 544 320 632.256 391.744 704 480 704S640 632.256 640 544c0-46.592-20.288-88.128-52.096-117.376C693.312 383.808 768 280.64 768 160 768 142.336 753.664 128 736 128z"  horiz-adv-x="1024" />

    
    <glyph glyph-name="-userinfo" unicode="&#58899;" d="M758.494 586.731c0 153.706-121.349 278.759-270.522 278.759-149.135 0-270.505-125.051-270.505-278.759 0-104.819 56.481-196.214 139.675-243.81-163.206-60.427-280.258-221.445-280.258-410.164 0-16.698 13.146-30.25 29.342-30.25 16.237 0 29.361 13.533 29.361 30.25 0 206.897 163.338 375.23 364.105 375.23 2.464 0 4.814 0.393 7.088 0.979 140.397 9.999 251.715 130.587 251.715 277.761M487.971 368.46900000000005c-116.778 0-211.782 97.892-211.782 218.261 0 120.349 95.006 218.243 211.782 218.243 116.795 0 211.802-97.892 211.802-218.243 0.021-120.369-95.006-218.261-211.802-218.261M544.27 210.40999999999997c0-16.681 13.161-30.25 29.361-30.25h344.113c16.237 0 29.361 13.549 29.361 30.25 0 16.698-13.124 30.25-29.361 30.25h-344.113c-16.197 0-29.361-13.549-29.361-30.25M917.739 116.96000000000004h-344.113c-16.197 0-29.361-13.533-29.361-30.267 0-16.698 13.161-30.25 29.361-30.25h344.113c16.237 0 29.361 13.533 29.361 30.25 0 16.735-13.124 30.267-29.361 30.267M917.739-21.865999999999985h-344.113c-16.197 0-29.361-13.533-29.361-30.25s13.161-30.25 29.361-30.25h344.113c16.237 0 29.361 13.533 29.361 30.25s-13.124 30.25-29.361 30.25z"  horiz-adv-x="1024" />

    
    <glyph glyph-name="personhelp" unicode="&#59050;" d="M835.001438 168.73871699999995c-25.716287 10.842884-54.239259 23.447003-79.897967 33.979413-7.323802 1.981389-14.654377 3.985358-21.975921 5.989327-8.74295 6.017552-17.299616 26.021116-21.974792 35.966448-4.660498 0.666108-9.319868 1.335603-13.986011 1.997195 0.719171 15.402902 10.236613 16.219166 13.986011 27.970893 3.293283 10.379996 0.342086 23.841023 5.564825 33.448785 3.628595 6.668983 11.825111 6.708498 15.918853 12.424609 3.718915 5.18774 6.175612 14.244551 7.332834 20.589513 2.111224 11.600441 3.948101 27.495585-1.559144 39.006836-3.169094 6.614792-5.166289 7.256062-6.045777 15.276454-1.073676 9.737596 2.867652 41.481596 3.02684 48.344767 0.400794 17.812181-0.020322 33.924093-4.333089 51.265482 0 0-5.230642 15.719021-13.43619 20.449517l-16.344485 2.804428-10.106778 9.367286c-40.699202 25.064856-84.347343 7.493151-107.702897-1.982518-33.682487-10.93772-54.982139-58.602831-40.113252-129.081579 2.540243-12.031718-6.593341-17.417032-5.983682-23.977632 1.298346-14.376644 1.567047-48.90475 15.142104-57.409482 1.250928-0.794814 10.882399-3.208609 10.82482-2.54363 1.325442-13.981495 2.661045-27.981054 3.988745-41.967065 3.388119-9.29503 11.515766-10.324675 13.868595-23.45039l-10.389028-2.535727c-3.333927-7.085583-8.644728-19.218911-14.584379-27.812834 12.923625-5.484666 26.009826-11.089006 38.872485-16.632379 15.008882-6.456732 29.89809-12.863788 44.176512-18.874567 6.792044-2.8812 13.928432-5.348057 21.480291-7.96733 28.205724-9.777111 60.182298-20.852569 72.128212-55.499219l0.93368-2.719753 0-2.877813c0-9.010523 0.352247-23.399585 0.716913-38.621848 0.164834-6.784141 0.334183-13.815533 0.483211-20.837892l161.064926 0c0.433535 21.849473-1.135771 61.262748-1.135771 77.938029C886.471268 155.32172000000003 858.429248 158.85096399999998 835.001438 168.73871699999995zM632.496688 165.55946200000005c-36.08725 15.208714-76.098893 32.89219-112.105985 47.669627-10.270483 2.795396-20.548869 5.596437-30.829513 8.40538-12.263162 8.43925-24.273429 36.507237-30.8329 50.467281-6.527859 0.924648-13.072653 1.8572-19.620834 2.788622 1.011581 21.589804 14.378902 22.750412 19.620834 39.243925 4.625499 14.550509 0.485469 33.461204 7.818302 46.927877 5.088388 9.348093 16.584961 9.413574 22.3372 17.43058 5.213707 7.279771 8.64247 19.970822 10.270483 28.877477 2.962487 16.283519 5.549019 38.57443-2.182351 54.732631-4.443731 9.273579-7.248159 10.168873-8.483281 21.435131-1.49705 13.654086 4.022615 58.186232 4.252931 67.818831 0.563369 24.98131-0.037257 47.584953-6.085292 71.92725 0 0-7.345252 22.042531-18.845213 28.690064l-22.925407 3.939069-14.17794 13.143779c-57.104653 35.154699-118.331272 10.496282-151.113949-2.798783-47.253028-15.341936-77.133054-82.205636-56.272582-181.087682 3.561985-16.881888-9.246483-24.438262-8.406509-33.655391 1.833491-20.157107 2.211705-68.600097 21.25675-80.531334 1.764622-1.118836 15.267422-4.495665 15.187264-3.56763 1.865103-19.615189 3.730205-39.261989 5.59305-58.880564 4.757592-13.051202 16.158201-14.478254 19.471806-32.900093l-14.586637-3.536018c-6.562858-13.960044-18.571996-42.02916-30.841932-50.467281-10.269354-2.808944-20.551127-5.611114-30.820481-8.40538-36.004834-14.777438-76.020992-32.460913-112.102598-47.669627-32.852675-13.881014-72.193693-18.815859-84.0809-53.269451 0-23.409746-2.195899-78.671877-1.604304-109.341072l715.783903 0c0.597239 30.669195-1.600917 85.930196-1.600917 109.341072C704.693768 146.743603 665.348234 151.678448 632.496688 165.55946200000005zM1020.902033 152.94066599999996c-5.903524 17.133654-25.476939 19.592609-41.827069 26.496423-17.944273 7.568794-37.849614 16.352388-55.767921 23.712318-5.099678 1.385279-10.209517 2.788622-15.325001 4.179546-6.099969 4.202126-12.070104 18.158783-15.336291 25.094209-3.253768 0.475308-6.507537 0.934809-9.760176 1.40673 0.500146 10.729985 7.142033 11.312547 9.760176 19.513579 2.294121 7.241385 0.237089 16.639153 3.888265 23.334104 2.527824 4.661627 8.243934 4.694368 11.108198 8.691017 2.595563 3.613918 4.30938 9.920494 5.112097 14.359709 1.473341 8.107325 2.75701 19.189557-1.092869 27.217852-2.203802 4.619854-3.599241 5.068066-4.213416 10.665632-0.75417 6.787528 2.005098 28.946346 2.114611 33.733292 0.282249 12.432512-0.019193 23.672803-3.029098 35.786937 0 0-3.653433 10.956913-9.372931 14.255841l-11.402867 1.963325-7.0551 6.540278c-28.415718 17.488159-58.864759 5.229513-75.169729-1.385279-23.501195-7.64105-38.368953-40.89226-27.98557-90.079259 1.764622-8.408767-4.600662-12.160423-4.179546-16.747537 0.900939-10.020975 1.096256-34.122796 10.561764-40.056803 0.882875-0.553208 7.599277-2.234284 7.555246-1.777041 0.925777-9.75566 1.865103-19.524869 2.794267-29.283916 2.356216-6.49286 8.028295-7.197354 9.673244-16.359162l-7.254933-1.780428c-2.763784-5.877557-7.473958-16.726086-12.560088-22.481711 9.248741-3.927779 18.612639-7.945879 27.821865-11.906399 10.733372-4.604049 21.37981-9.191162 31.596101-13.500542 4.694368-1.978002 9.702598-3.718915 15.002108-5.553535 20.122108-6.971555 45.174545-15.643378 54.470703-42.618496l0.935938-2.72314 0-2.86991c0-6.349477 0.243863-16.525125 0.501275-27.302527 0.042902-1.615594 0.081288-3.272961 0.123061-4.916781l109.10624 0C1022.002805 113.79722200000003 1020.902033 141.29280700000004 1020.902033 152.94066599999996z"  horiz-adv-x="1024" />

    
    <glyph glyph-name="-el-file" unicode="&#59023;" d="M989.541-44.66700000000003h-858.923c0 0-68.409-10.642-68.409 80.572v737.306c0 0 1.521 82.091 85.132 82.091h301.003c0 0 36.486 7.601 66.89-39.525 28.884-45.607 45.607-74.491 45.607-74.491 0 0 10.642-12.161 34.965-12.161-21.283 0 387.655 0 387.655 0 0 0 68.409 7.601 68.409-68.409v-629.371c0 0 10.642-76.012-62.33-76.012zM925.692 533.0160000000001c0 18.243-15.202 33.445-33.445 33.445h-668.896c-19.763 0-34.965-15.203-34.965-33.445v-3.04c0-19.763 15.202-34.965 34.965-34.965h668.896c18.243 0 33.445 15.203 33.445 34.965v3.04z"  horiz-adv-x="1127" />

    
    <glyph glyph-name="-yh" unicode="&#58947;" d="M512.010745-126.08232399999997c-282.335297 0-511.220241 228.798986-511.220241 511.036046C0.790504 667.201014 229.675448 896 512.010745 896c282.312784 0 511.198751-228.798986 511.198751-511.046279C1023.208473 102.71461499999998 794.322505-126.08232399999997 512.010745-126.08232399999997zM512.010745 800.173514c-229.385341 0-415.371242-185.884594-415.371242-415.220816 0-107.22714 41.021276-204.6551 107.802238-278.339286 60.140729 29.092595 38.062897 4.88424 116.77254 37.274952 80.539314 33.089629 99.610672 44.639686 99.610672 44.639686l0.776689 76.29464c0 0-30.169113 22.890336-39.543621 94.683453-18.895349-5.426593-25.108864 21.988804-26.237571 39.429011-1.001817 16.863063-10.926864 69.487607 12.105712 64.739467-4.714372 35.144428-8.094352 66.844407-6.417153 83.633792 5.763261 58.938344 62.97324 120.518864 151.105486 125.017318 103.665011-4.486174 144.737452-66.028832 150.500713-124.9682 1.680269-16.800641-2.028193-48.511877-6.739495-83.594907 23.025413 4.686742 13.028735-47.861054 11.901051-64.726164-1.028423-17.440208-7.394411-44.756343-26.208918-39.34203-9.42158-71.79107-39.593763-94.498234-39.593763-94.498234l0.725524-75.924203c0 0 19.070334-10.788717 99.609649-43.892673 78.70862-32.387641 56.605206-9.609869 116.77561-38.765909 66.75231 73.686233 107.772562 171.101913 107.772562 278.339286C927.356404 614.2878969999999 741.398132 800.173514 512.010745 800.173514z"  horiz-adv-x="1024" />

    
    <glyph glyph-name="-oacricle" unicode="&#58948;" d="M375.825234 295.585906C360.677217 320.471447 351.952168 349.698222 351.952168 380.964477 351.952168 471.762822 425.569115 545.379772 516.367462 545.379772 607.174027 545.379772 680.782757 471.762822 680.782757 380.95625700000005 680.782757 351.053349 672.798236 323.01393900000005 658.845053 298.853888 637.28279 320.325288 552.639522 404.611894 535.423195 421.755913 515.655543 441.440532 495.963523 421.755913 495.963523 421.755913L375.825234 295.585906ZM424.730638 244.42451900000003C450.914256 226.816009 482.440536 216.54096200000004 516.367462 216.54096200000004 546.84507 216.54096200000004 575.386863 224.83533899999998 599.858509 239.289762L516.778499 335.673819 424.730638 244.42451900000003ZM512-128C794.769792-128 1024 101.23020799999995 1024 384 1024 666.769792 794.769792 896 512 896 229.230208 896 0 666.769792 0 384 0 101.23020799999995 229.230208-128 512-128ZM804.250419 412.27737C804.333451 407.829936 804.275083 354.896432 804.275083 349.95575199999996 804.275083 345.02329499999996 799.022015 345.01507100000003 799.022015 345.01507100000003L759.529461 339.737341C753.21509 302.275317 738.59035 267.65685499999995 717.421881 237.95523100000003L741.723284 206.55191000000002C741.723284 206.55191000000002 745.323978 202.48263099999997 742.241192 199.29297399999996L698.292983 155.34476800000004C694.807378 151.85998500000005 690.943619 155.72292300000004 690.943619 155.72292300000004L659.285456 180.048987C629.54273 158.814751 594.892206 144.03299600000003 557.356194 137.73588800000005L552.095727 98.41597200000001C552.095727 98.41597200000001 552.095727 93.15550399999995 547.318642 92.89983700000005 542.550596 92.66143599999998 489.773286 92.891617 485.169658 92.891617 480.56603 92.891617 480.072786 98.07891900000004 480.072786 98.07891900000004L474.992353 137.73588800000005C437.661861 144.00011099999995 403.167531 158.51798199999996 373.523453 179.53929700000003L342.021484 155.64153499999998C342.021484 155.64153499999998 338.297478 151.68734700000005 334.754327 155.115406L290.691029 199.17870400000004C287.550697 202.31903599999998 290.954092 206.41297899999995 290.954092 206.41297899999995L315.435531 237.66010300000005C294.086204 267.47764099999995 279.223062 302.258873 272.893073 339.93463799999995L233.630701 345.05617400000006C233.630701 345.05617400000006 228.377632 345.220591 227.555556 350.153048L227.555556 412.302029C229.199708 417.070074 233.252546 416.872775 233.252546 416.872775L272.950619 422.273818C279.231283 459.735842 294.003996 494.3206 315.139584 524.014L290.806118 555.367996C290.806118 555.367996 287.419164 559.461939 290.797898 562.832452 294.168411 566.202965 331.202958 603.344381 334.746106 606.780661 338.289257 610.21694 341.774862 606.26275 341.774862 606.26275L373.350818 582.422534C402.970234 603.492355 437.472782 618.043107 474.827938 624.331992L480.237201 663.594364C480.237201 663.594364 480.409836 668.321304 484.840829 668.411732 489.280043 668.493939 542.065573 668.395291 546.825395 668.395291 551.601658 668.38707 551.93049 663.158664 551.93049 663.158664L557.2 624.4717459999999C594.892206 618.182861 629.690704 603.360822 659.540298 582.0443789999999L690.590128 606.057233C690.590128 606.057233 694.338796 609.337318 697.832622 605.851713L741.65834 562.018597C745.086399 558.7056299999999 741.600796 555.2200250000001 741.600796 555.2200250000001L717.605205 523.635846C738.624879 494.024653 753.282503 459.628974 759.539325 422.323143L798.555076 416.856334C798.553429 416.856334 804.168212 416.716584 804.250419 412.27737Z"  horiz-adv-x="1024" />

    
    <glyph glyph-name="-el-system" unicode="&#59082;" d="M381.184541 752.058201c-24.688261-0.133909-47.324714-5.900999-65.592328-16.781022-9.170183-5.529251-17.31566-12.425575-23.439508-21.13567-6.153228-8.635545-10.166507-19.381859-10.136527-30.73756l0-276.161962c-112.159156 0-203.093702-90.934546-203.093702-203.108293 0-100.045969 72.384723-182.954557 167.584977-199.809129L206.985648 297.802786c-0.877005 6.390667 3.566982 12.202727 9.988228 13.094122 6.331707 0.877405 12.187737-3.626541 13.050152-9.958248l40.35404-299.290281c3.87937-0.266819 7.71417-0.653557 11.638109-0.653557 41.349965 0 79.757325 12.455555 111.861758 33.651184l454.924961-33.651184 0 84.126762 92.657978 4.102219L941.460874 766.906533 381.184541 752.058201 381.184541 752.058201zM267.449853 176.680307l-16.766033 124.317313c53.79093-0.445698 106.719444-30.440162 161.654598 9.869309-13.46627-44.27778-21.760247-53.061824-37.188186-82.996528 22.800541-24.673272 33.115548-31.005978 53.983799-41.290805C374.183887 146.209966 321.225793 176.234609 267.449853 176.680307L267.449853 176.680307zM658.298458 314.34557l-193.581352 14.283316 4.414407 54.088128 193.595742-14.328285L658.298458 314.34557 658.298458 314.34557zM744.46084 443.538177 409.068635 469.103244l4.518337 54.043159 335.407794-25.535087L744.46084 443.538177 744.46084 443.538177zM890.821207 135.151463l-42.018312-1.85774L848.802896 628.438814l-466.161742 34.45364-1.055285 0c-16.186026-0.05936-30.454752 4.146589-38.986567 9.364051-4.251118 2.526687-7.045223 5.231853-8.383316 7.193523-1.382063 2.021629-1.515972 3.002364-1.545552 3.953719 0.02958 0.951355 0.163489 1.94708 1.545552 3.968309 1.992049 2.987375 7.372402 7.506311 15.785298 10.865034 8.382717 3.418682 19.456209 5.70753 31.584586 5.67815l0.223249 0 509.01209 13.51084L890.821207 135.151463 890.821207 135.151463z"  horiz-adv-x="1024" />

    
    <glyph glyph-name="saftpctwo" unicode="&#59700;" d="M1003.574-8.027000000000044l-141.28 142.171c-18.543 18.663-44.862 24.297-68.415 17.54l-39.354 39.601c39.434 51.873 63.122 116.511 63.122 186.867 0 142.883-96.771 262.709-227.864 297.599 0.005 0.241 0.071 0.462 0.071 0.703 0 21.289-17.312 38.711-38.472 38.711H166.7c-21.158 0-38.464-17.422-38.464-38.711 0-21.292 17.306-38.711 38.464-38.711h180.119c-40.673-26.17-74.674-61.702-99.212-103.635-1.324 0.14-2.612 0.406-3.971 0.406h-76.937c-21.158 0-38.464-17.422-38.464-38.712 0-21.289 17.306-38.711 38.464-38.711h48.996c-6.639-25.236-10.523-51.602-10.523-78.939 0-8.201 0.594-16.252 1.219-24.291h-39.692c-21.158 0-38.464-17.419-38.464-38.711 0-21.293 17.306-38.711 38.464-38.711h51.294c1.521 0 2.967 0.28 4.444 0.454 13.388-38.678 34.168-73.762 60.716-103.684H166.7c-21.158 0-38.464-17.422-38.464-38.711 0-21.293 17.306-38.711 38.464-38.711h179.521c9.226 0 17.604 3.445 24.251 8.946 42.214-22.083 90.072-34.754 140.937-34.754 71.463 0 137.048 24.833 189.148 66.12l0.799-0.804c-18.507-14.488-38.648-26.92-60.208-36.893v-105.844H76.945V818.393h564.203v-157.462c28.234-13.06 54.084-30.276 76.934-50.898V818.393c0 42.758-34.441 77.421-76.934 77.421H76.945c-42.493 0-76.945-34.663-76.945-77.421v-825.833c0-42.763 34.452-77.423 76.945-77.423h564.203c42.492 0 76.934 34.66 76.934 77.423V118.46600000000001l25.924-26.09c-2.286-20.484 4.065-41.758 19.672-57.464l141.281-142.174c27.234-27.403 71.386-27.403 98.614 0 27.237 27.403 27.237 71.832 0.001 99.235zM511.409 147.40200000000004c-126.437 0-229.303 103.512-229.303 230.749 0 127.231 102.866 230.743 229.303 230.743 126.435 0 229.301-103.512 229.301-230.743 0.001-127.237-102.866-230.749-229.301-230.749z m1.51 412.919a179.277 179.277 0 0 1-41.178-4.782c-13.789-3.272-22.341-17.159-19.097-31.032 3.244-13.887 17.055-22.418 30.842-19.216 9.561 2.268 19.452 3.412 29.433 3.412 60.127 0 112.874-42.87 125.397-101.941 2.566-12.135 13.209-20.429 25.055-20.429a25.11 25.11 0 0 1 5.375 0.569c13.862 2.97 22.688 16.686 19.73 30.618-17.543 82.745-91.372 142.801-175.557 142.801z"  horiz-adv-x="1024" />

    
    <glyph glyph-name="-train" unicode="&#58885;" d="M315.904 555.52c20.992-63.488 79.36-63.488 99.84 0 6.656 3.584 13.824 14.336 14.848 23.04 1.024 9.216 0.512 21.504-8.704 21.504-2.048 29.696-18.432 54.784-55.296 54.784-36.352 0-54.784-22.016-56.832-54.784-9.216 0-10.24-12.288-8.704-21.504 1.024-8.704 8.192-19.456 14.848-23.04zM450.56 212.99199999999996c24.064 0 44.032 19.968 44.032 44.032v1.536L665.6 429.568c4.608 4.608 4.608 12.288 0 16.896-4.608 4.608-12.288 4.608-16.896 0l-154.624-154.112V437.76c0 31.744-23.04 58.88-55.296 66.048l-23.552 5.12c-20.48-40.448-78.336-40.448-98.304 0l-23.552-5.12c-32.256-6.656-55.296-34.304-55.296-66.048v-180.736c0-24.064 19.456-44.032 44.032-44.032 0-12.288 9.728-22.016 22.016-22.016h124.416c12.288 0 22.016 10.24 22.016 22.016zM171.52 231.42399999999998c18.944-8.192 40.448 5.12 40.448 26.112 0 9.216-5.632 16.896-14.336 19.968-27.136 9.728-47.104 35.328-47.104 66.048V675.84c0 38.912 31.232 70.144 70.144 70.144h583.68c38.912 0 70.144-31.232 70.144-70.144v-332.288c0-38.912-31.232-70.144-70.144-70.144h-232.448c-14.336 0-26.112-11.776-26.112-26.112s11.776-26.112 26.112-26.112h232.96c67.584 0 122.368 54.784 122.368 122.368V675.84c0 67.584-54.784 122.368-122.368 122.368h-583.68C153.6 798.208 98.816 743.424 98.816 675.84v-332.288c-0.512-50.176 29.696-93.184 72.704-112.128zM269.824 148.48000000000002H178.176c-44.032 0-79.872-35.84-79.872-79.872v-105.472h251.392v105.472c0 44.032-35.84 79.872-79.872 79.872zM559.616 148.48000000000002H468.48c-44.032 0-79.872-35.84-79.872-79.872v-105.472H640v105.472c-0.512 44.032-36.352 79.872-80.384 79.872zM849.408 148.48000000000002h-91.136c-44.032 0-79.872-35.84-79.872-79.872v-105.472h251.392v105.472c0 44.032-35.84 79.872-80.384 79.872z"  horiz-adv-x="1024" />

    
    <glyph glyph-name="-el-adverce" unicode="&#58982;" d="M107.328 548.352h97.088v-219.52H107.328v219.52z m153.536 29.248s337.92 12.352 515.136 223.424c0 0 151.616 36.224 140.032-361.28 0 0 16.128-273.728-138.624-312.256 0 0-116.16 150.656-516.48 168.96l-0.064 281.152z m62.912-347.52s14.208-128.896 118.72-263.808c0 0 90.816-4.032 104.512 33.472 0 0 9.664 24.832-19.264 56.832-9.28 14.72-91.584 84.224-105.024 173.504H323.776z"  horiz-adv-x="1024" />

    
    <glyph glyph-name="-list" unicode="&#58920;" d="M319.247059 859.858824h-126.494118c-72.282353 0-126.494118-54.211765-126.494117-126.494118v-698.729412c0-72.282353 54.211765-126.494118 126.494117-126.494118h632.470588c72.282353 0 126.494118 54.211765 126.494118 126.494118v698.729412c0 72.282353-54.211765 126.494118-126.494118 126.494118h-120.470588v-60.235295h120.470588c36.141176 0 66.258824-30.117647 66.258824-66.258823v-698.729412c0-36.141176-30.117647-66.258824-66.258824-66.258823h-632.470588c-36.141176 0-66.258824 30.117647-66.258823 66.258823v698.729412c0 36.141176 30.117647 66.258824 66.258823 66.258823h126.494118v60.235295zM385.505882 799.623529h252.988236v60.235295h-252.988236zM512 323.76470600000005c84.329412 0 156.611765 72.282353 156.611765 156.611765s-72.282353 156.611765-156.611765 156.611764-156.611765-72.282353-156.611765-156.611764 72.282353-156.611765 156.611765-156.611765z m0 60.235294c-54.211765 0-96.376471 42.164706-96.376471 96.376471s42.164706 96.376471 96.376471 96.37647 96.376471-42.164706 96.376471-96.37647-42.164706-96.376471-96.376471-96.376471zM734.870588 161.129412c0 120.470588-96.376471 222.870588-222.870588 222.870588s-222.870588-96.376471-222.870588-222.870588h60.235294c0 90.352941 72.282353 162.635294 162.635294 162.635294s162.635294-72.282353 162.635294-162.635294h60.235294z"  horiz-adv-x="1024" />

    
    <glyph glyph-name="-oa" unicode="&#58914;" d="M518.951999-127.20587L50.084059-25.430882999999994a64.009992 64.009992 0 0 0-46.406994 60.488992L0.797065 743.6400189999999a61.768992 61.768992 0 0 0 47.365994 59.207993L518.951999 895.023c25.923997 5.119999 57.927993-10.241999 57.927993-37.765995V-89.11987499999998c0-27.843996-32.003996-42.566995-57.927993-38.085995z m-271.719965 579.283926a92.172988 92.172988 0 0 1-79.05099 40.005995 92.172988 92.172988 0 0 1-79.37199-40.005995 150.101981 150.101981 0 0 1-25.922997-89.932988 150.101981 150.101981 0 0 1 25.922997-89.932989 91.852988 91.852988 0 0 1 79.37199-40.325995 91.852988 91.852988 0 0 1 79.05099 40.325995 150.101981 150.101981 0 0 1 25.923996 89.932989 150.101981 150.101981 0 0 1-25.923996 89.932988z m214.111972-83.531989h-2.239999 1.6l-47.686994 120.337985h-34.564996L277.63703 232.84608400000002h38.404995l27.523996 70.089991h105.295987l27.523997-70.089991h38.084995z m-65.609991 69.129991l38.725995-96.013988h-76.81099zM168.181044 267.41207999999995a57.607993 57.607993 0 0 0-52.167994 32.003996 117.776985 117.776985 0 0 0-16.321998 64.009992 119.376985 119.376985 0 0 0 16.001998 64.008991 58.247993 58.247993 0 0 0 52.487994 29.443997 58.247993 58.247993 0 0 0 52.487993-29.443997 121.617985 121.617985 0 0 0 15.681998-64.009991 121.297985 121.297985 0 0 0-16.001998-64.008992 57.927993 57.927993 0 0 0-52.167993-32.003996zM640.889984 160.836093v-144.340981c0-27.523997 26.563997-32.004996 52.806993-32.004996H985.89994c26.243997 0 36.484995 2.88 36.484995 32.004996V750.682018a49.286994 49.286994 0 0 1-47.686994 50.246994H688.896978a49.286994 49.286994 0 0 1-48.006994-50.246994v-109.775986h176.344977a48.006994 48.006994 0 0 0 0-96.013987H640.889984v-96.013988h176.344977a48.006994 48.006994 0 0 0 0-96.013988H640.889984v-96.013988h176.344977a48.006994 48.006994 0 0 0 0-96.013988z"  horiz-adv-x="1024" />

    
    <glyph glyph-name="xtpz" unicode="&#58903;" d="M871.664 324.79200000000003l35.096 35.096-61.424 61.4-35.08-35.088c-21.936 17.544-48.256 26.312-78.952 30.696v48.256H643.584v-48.256c-26.328-4.384-52.64-17.544-78.96-30.696l-35.088 35.088-61.4-61.4 35.088-35.096c-13.16-21.936-26.32-48.24-30.696-78.952h-48.256v-87.728h48.256c4.384-26.312 17.544-52.624 30.696-78.936l-35.088-30.704 61.4-61.424 35.088 35.104c21.928-17.552 48.248-26.32 78.96-30.704v-48.256h87.72v43.856c26.312 4.392 52.632 17.544 78.952 30.712l35.08-35.096 61.424 61.4-35.096 35.112c13.168 21.92 26.32 48.232 30.704 78.936h48.24V245.832h-48.24c-4.384 30.712-17.536 57.016-30.704 78.96z m-184.216-254.4c-70.184 0-131.584 61.408-131.584 131.576 0 74.576 61.4 131.592 131.584 131.592 74.56 0 131.576-57.016 131.576-131.592 0-70.168-57.016-131.576-131.576-131.576zM424.28 737.08L380.416 824.808H73.384v-877.232h350.888v87.736H161.112V561.648h701.792V473.92h87.712V737.08H424.28z"  horiz-adv-x="1024" />

    
    <glyph glyph-name="xiazai" unicode="&#59211;" d="M152.435785 0.758526V96.590128h718.785623v-95.831602H152.435785z m427.160753 235.088226l-67.76743-67.762313-67.768453 67.762313 0.002046 0.002047-203.304335 203.287962 67.76743 67.765383L463.909725 351.528448V767.412366h95.837742V351.526401L715.131397 506.902144l67.76743-67.765383-203.302289-203.287962v-0.002047z"  horiz-adv-x="1024" />

    
    <glyph glyph-name="-attendance" unicode="&#58917;" d="M741.792 463.456a277.024 277.024 0 1 1 0-553.984 277.024 277.024 0 0 1 0 553.984z m0-479.424a202.432 202.432 0 1 0-0.096 404.832 202.432 202.432 0 0 0 0.096-404.832zM440.032 80.832H90.496a10.624 10.624 0 0 0-10.656 10.656V773.344c0 5.856 4.768 10.656 10.656 10.656h681.824c5.888 0 10.656-4.8 10.656-10.656v-269.92a315.52 315.52 0 0 0 74.592-19.008V773.344a85.248 85.248 0 0 1-85.248 85.248H90.496A85.248 85.248 0 0 1 5.248 773.344V91.51999999999998a85.248 85.248 0 0 1 85.248-85.248H477.76a316.48 316.48 0 0 0-37.728 74.56zM572.096 457.344h-75.488v-61.376h3.808a321.216 321.216 0 0 0 71.68 61.376zM698.592 503.136V707.904h-186.016v-63.904h116.352v-90.144h-116.352v-63.904h128.736a319.936 319.936 0 0 0 57.28 13.184zM452.48 322.432h-72.192v54.976h101.632v62.016h-101.632V488H492.8V707.904H310.592v-571.488h69.664v123.36h50.336a316.48 316.48 0 0 0 21.888 62.656zM380.256 645.28h47.296v-95.264h-47.296V645.28zM126.496 484.16c12.768-18.528 31.968-61.376 36.448-80.544 10.208 12.16 19.808 24.928 29.376 39.008v-306.848h72.256V587.712c16 40.928 28.128 84.416 39.008 126.592l-71.616 17.248c-20.448-95.264-56.896-187.936-105.472-247.392zM920.48 192.89599999999996a7.616 7.616 0 0 0-7.616-7.776 7.872 7.872 0 0 0-5.536 2.304 8 8 0 0 0-2.24 5.536l0.064 0.96c-1.216 11.488-16.48 129.92-132.736 149.888l0.032 0.32a7.744 7.744 0 0 0-5.344 7.36 7.648 7.648 0 0 0 10.912 7.072c20.096-4.16 133.728-33.44 142.496-165.6v-0.064h-0.032z m-181.344 153.76l0.032-0.352s-0.288 0.064-0.928 0.064c-0.576-0.128-1.088-0.128-1.664-0.128a7.04 7.04 0 0 0-1.856 0.224c-18.656 0-91.456-5.632-141.088-89.632l-0.544 0.512a6.592 6.592 0 0 0-4.416-1.664 6.624 6.624 0 0 0-4.896 2.048 7.072 7.072 0 0 0-0.256 9.6c2.656 5.504 44.064 87.84 150.752 94.144a7.52 7.52 0 0 0 2.176 0.384 7.84 7.84 0 0 0 2.688-15.2zM586.56 234.55999999999995c0-1.28-0.256-2.432-0.736-3.456-15.488-46.144 2.624-94.336 2.624-94.336h-0.128a7.552 7.552 0 0 0-14.272-4.8l-0.832-0.352c-21.184 39.328-2.592 107.392-2.592 107.392l0.672-0.32a8 8 0 0 0 7.104 4.224 8.32 8.32 0 0 0 8.16-8.352z m7.008-136.16s7.936 26.72 0 61.312c0 0-15.424 101.344 63.84 150.784h0.096a6.656 6.656 0 0 0 4.768 1.952c3.808 0 6.944-3.104 6.944-7.008a6.496 6.496 0 0 0-1.92-4.8l0.32-0.416s-64.384-33.184-61.376-125.216c0 0 12.16-55.968 0.416-83.488a7.488 7.488 0 0 0-7.36-6.496 7.68 7.68 0 0 0-7.712 7.712 8 8 0 0 0 2.144 5.44l-0.16 0.224z m23.008-20.448s17.696 38.592 5.12 89.504c0 0-7.968 62.912 28.096 97.152 0 0 46.208 56.448 122.624 38.336l-0.064-0.128a6.784 6.784 0 0 0 2.272-10.912 6.912 6.912 0 0 0-4.672-1.984 8.864 8.864 0 0 0-2.56 0.512l-0.16-0.32s-85.152 18.336-125.152-61.312c0 0-14.688-34.528-2.56-71.616 0 0 12.256-57.472-12.768-92l-0.576 0.704a7.168 7.168 0 0 0-3.936-1.152 7.808 7.808 0 0 0-5.408 2.24 7.872 7.872 0 0 0-0.16 10.784l-0.096 0.192z m17.888-23.04s10.848 18.592 15.328 33.248l0.32-0.064a6.4 6.4 0 0 0 6.112 4.224 6.624 6.624 0 0 0 6.208-9.184l0.192-0.128s-8.224-24.256-15.04-35.232a7.52 7.52 0 0 0-7.328-6.08 7.68 7.68 0 0 0-7.648 7.68c0 2.112 0.768 3.968 2.08 5.408l-0.224 0.128z m28.096-10.176s29.984 55.04 17.888 104.736c0 0-11.232 57.536 12.768 76.704l0.16-0.128a5.568 5.568 0 0 0 4.128 1.664c2.144 0 4.192-1.088 5.312-2.88 1.152-1.888 1.28-4.192 0.32-6.08l0.32-0.192s-22.464-19.296-5.12-84.352c0 0-0.128-58.368-25.568-99.776l-0.192 0.224a7.04 7.04 0 0 0-11.936 5.056c0 1.984 0.704 3.68 1.92 5.024z m25.536-15.392s32.224 54.56 23.008 109.984c0 0-15.648 69.92 17.888 79.296 0 0 36.448 13.024 48.576-28.128 0 0 5.184-33.184 2.56-63.936h-0.064a6.496 6.496 0 0 0-6.368-6.208 6.528 6.528 0 0 0-6.08 8.768h-0.256s10.912 83.136-25.536 81.856c0 0-31.904 1.216-20.448-53.664 0 0 15.392-70.144-20.128-134.88a7.424 7.424 0 0 0-7.328-6.144 7.808 7.808 0 0 0-5.408 2.24 7.52 7.52 0 0 0-2.24 5.472c0 2.08 0.768 4.032 2.112 5.376h-0.288v-0.032z m38.336 17.92l0.288-0.256a5.856 5.856 0 0 0 4 1.536c3.456 0 6.304-2.88 6.304-6.336a6.432 6.432 0 0 0-0.576-2.496l0.16-0.128c-3.328-14.784-12.192-21.792-12.672-23.008a6.656 6.656 0 0 0-5.664-3.36 6.592 6.592 0 0 0-4.352 11.552c3.008 5.664 12.512 22.496 12.512 22.496z m4.896 19.328c0 1.28 0.32 2.432 0.768 3.424l-0.608 0.224c18.592 48.896 2.56 115.04 2.56 115.04l0.448 0.192a7.712 7.712 0 0 0 7.584 8.832c2.976 0 5.536-1.6 6.88-4.032l0.416 0.128c13.984-74.144-2.528-125.312-2.528-125.312l-0.576 0.192a7.488 7.488 0 0 0-7.36-6.4 7.68 7.68 0 0 0-7.584 7.712z m15.584-42.368c17.536 25.216 20.416 74.176 20.416 74.176 0 3.584 2.848 6.56 6.4 6.56a6.464 6.464 0 0 0 6.176-8.48c-5.824-57.984-18.016-76.832-20-79.52a7.488 7.488 0 0 0-7.328-5.984 7.744 7.744 0 0 0-5.568 13.088l-0.096 0.16z m48.48 163.616c-15.2 65.088-71.52 43.488-71.52 43.488l-0.16 0.288c-0.352-0.064-0.672-0.16-0.992-0.16a7.232 7.232 0 0 0-4.96 2.048 7.04 7.04 0 0 0-2.016 4.928c0 3.648 2.784 6.752 6.368 6.944 44.416 15.872 73.248-21.696 73.248-21.696 32.48-56.992 3.712-175.36-1.76-196.224a6.496 6.496 0 0 0-6.4-6.528 6.528 6.528 0 0 0-4.672 1.952 6.336 6.336 0 0 0-1.952 4.64c0 1.92 0.736 3.584 2.016 4.8 21.792 74.304 12.8 155.52 12.8 155.52z m10.528 46.112c-8.384 9.024-39.04 38.112-79.456 28.032 0 0-54.496-6.528-63.872-71.552 0 0 14.496-48.704 5.088-74.144l-0.352 0.064a7.52 7.52 0 0 0-7.424-6.72 7.968 7.968 0 0 0-5.984 2.816 7.584 7.584 0 0 0-1.568 6.432c0.48 2.304 8.544 32.16-5.12 68.992 0 0-0.256 73.76 79.232 89.472 0 0 51.776 10.208 90.496-34.144 2.304-1.28 3.904-3.776 3.904-6.72a7.68 7.68 0 0 0-7.616-7.84 7.616 7.616 0 0 0-7.328 5.312z m9.92-25.632l0.224 0.128a7.68 7.68 0 0 0 7.168 10.272c3.488 0 6.4-2.304 7.36-5.472l0.544 0.192c18.048-116.864-5.088-178.976-5.088-178.976l-0.608 0.608a6.944 6.944 0 0 0-4.736-2.016 7.008 7.008 0 0 0-4.8 2.048 6.72 6.72 0 0 0-2.016 4.8c0 1.952 0.736 3.648 1.984 4.864 20.096 109.824-0.032 163.552-0.032 163.552z m33.248-143.168c5.984 62.528 0 127.808 0 127.808-3.456 60.416-56.224 86.912-56.224 86.912l0.256 0.352a6.208 6.208 0 0 0 4.48 10.432c1.024 0 1.984-0.32 2.816-0.736l0.096 0.192c48.128-17.472 61.344-81.856 61.344-81.856 8.16-60.768 2.56-145.728 2.56-145.728h-0.16l0.064-0.512a7.68 7.68 0 1 0-14.784 2.976l-0.448 0.16z m28.096 104.832c7.904 77.088-46.016 120.16-46.016 120.16-54.816 50.784-145.664 20.352-145.664 20.352l-0.064 0.192-0.512-0.064a6.528 6.528 0 0 0-1.92 12.704v0.064c100.128 37.216 163.488-28.128 163.488-28.128 50.048-39.328 45.984-132.928 45.984-132.928l-1.44 0.704a7.424 7.424 0 0 0-6.304-3.392 7.712 7.712 0 0 0-7.36 10.24l-0.192 0.096z m4.896-33.248a7.68 7.68 0 0 0 14.944 2.496h0.576c1.984-23.616 0-40.832 0-40.832h-0.128a7.648 7.648 0 0 0-13.952-4.512 7.872 7.872 0 0 0-1.024 7.04 261.44 261.44 0 0 1-0.064 33.728 6.592 6.592 0 0 0-0.352 2.08z"  horiz-adv-x="1024" />

    
    <glyph glyph-name="safttwo" unicode="&#58969;" d="M512.00086 871.61958C334.482916 831.268807 67.471475 781.326188 67.471475 781.326188v-541.794755s151.030277-268.234505 444.529385-343.144132c319.104312 80.787557 444.527665 343.144132 444.527665 343.144132V781.324468c-0.00344 0-263.596841 50.771756-444.527665 90.295112z m0-866.873328V420.121657H178.603391V696.372303s200.255571 37.004981 333.397469 66.886606v-342.153296h333.394029v-162.189226c0.00172 0.00172-94.069235-194.332916-333.394029-254.170135z"  horiz-adv-x="1024" />

    
    <glyph glyph-name="cancle" unicode="&#58987;" d="M507.426133 739.5328c-4.2496 0.119467-8.413867-0.119467-12.6464-0.136533V839.338667c0 27.392-30.651733 43.6224-53.316266 28.245333L82.756267 623.9744000000001a34.133333 34.133333 0 0 1 0-56.4736l358.741333-243.592533c22.664533-15.394133 53.316267 0.836267 53.316267 28.245333v101.0688c172.834133 2.0992 316.5696-118.545067 323.515733-274.551467 5.3248-119.671467-71.424-225.757867-185.207467-274.756266-2.065067-0.887467-4.232533-2.628267-4.0448-6.178134 0.1536-2.901333 3.106133-3.754667 5.7344-2.9696C816.930133-51.67786699999999 951.005867 105.69386699999995 956.074667 295.082667c6.365867 238.660267-194.491733 437.640533-448.648534 444.450133z"  horiz-adv-x="1024" />

    
    <glyph glyph-name="-spgl" unicode="&#59032;" d="M640 832H384C208 832 63.999 688 63.999 512v-256c0-176 144-320 320.001-320h256c175.999 0 320.001 144 320.001 320V512c0 176-144.002 320-320.001 320z m-47.287-643.238c50.755-18.385 83.039-52.934 83.039-92.085H341.121c0 39.11 34.664 73.7 87.713 92.085-96.888 34.507-166.175 126.56-166.175 234.727a247.843 247.843 0 0 0 72.845 176.177 247.848 247.848 0 0 0 176.386 72.34 247.85 247.85 0 0 0 176.392-72.338 247.843 247.843 0 0 0 72.848-176.18h0.017c0-108.208-69.172-200.26-168.434-234.726zM516.537 510.938c-71.533 0-131.553-59.849-131.553-131.164 0-71.318 59.965-131.198 131.553-131.198 72.447 0 131.181 58.731 131.181 131.181 0 72.447-58.734 131.181-131.181 131.181z m-4.647-202.492c-34.623 0-64.567 27.603-64.567 64.41 0 34.467 29.944 64.411 64.567 64.411 35.574 0 64.411-28.837 64.411-64.411 0-35.57-28.837-64.41-64.411-64.41z"  horiz-adv-x="1024" />

    
    <glyph glyph-name="-xjsq" unicode="&#58892;" d="M1024-16.399999999999977L931.2-112s-94.8 68.4-134.8 108.8c-47.6-43.2-164.8-108.8-164.8-108.8l-92.8 95.6s139.6 73.6 186 117.2c-43.6 69.2-66.8 144-80.4 233.6v132.4h314v-132.4c-14-103.2-38-159.2-90.4-234.8 38.8-34.4 156-116 156-116z m-264.4 350.8L800 176l42.4 158.4h-82.8zM644 632h181.6V747.6H644V880h314v-380.4H644V632z m-231.2-744h-132V880h330.4v-380.4h-198v-66h198v-132.4h-198v-66h198v-132.4h-198V-112zM512 632V747.6h-99.2V632H512zM128 880C95.6 708 24.8 549.2 0 441.2v-40.8h99.2L96-112h135.2V880H128z"  horiz-adv-x="1024" />

    
    <glyph glyph-name="-sb" unicode="&#59054;" d="M512 894.914274c282.16998 0 510.916321-228.743271 510.916321-510.914274 0-282.17305-228.74634-510.914274-510.916321-510.914274C229.827973-126.915298 1.082656 101.82695000000001 1.082656 384 1.082656 666.171004 229.827973 894.914274 512 894.914274zM219.344222 140.12001399999997c0-26.947692 21.827078-48.776816 48.775792-48.776815h487.757925c26.947692 0 48.774769 21.829124 48.774769 48.776815l0.002047 134.133685c0 26.947692-21.829124 48.774769-48.776816 48.77477H544.921741V451.066331c0 16.825167-13.654971 30.484231-30.483207 30.484231-16.827213 0-30.486277-13.660087-30.486278-30.484231v-128.036839H268.120014c-26.948715 0-48.775792-21.828101-48.775792-48.774769v-134.134709z m60.969485 67.068378c0-16.82619 13.659064-30.486277 30.485254-30.486277 16.825167 0 30.484231 13.660087 30.48423 30.486277 0 16.82312-13.659064 30.483207-30.48423 30.483207-16.82619 0-30.485254-13.660087-30.485254-30.483207z m109.745277 0c0-16.82619 13.659064-30.486277 30.485254-30.486277 16.825167 0 30.484231 13.660087 30.484231 30.486277 0 16.82312-13.659064 30.483207-30.484231 30.483207-16.82619 0-30.485254-13.660087-30.485254-30.483207zM514.438534 579.10317c-70.72669 0-128.038886-57.312196-128.038886-128.036839 0.001023-16.82619 13.660087-30.485254 30.485254-30.485254 16.82926 0 30.485254 13.659064 30.485254 30.485254 0 37.070216 29.997138 67.066331 67.068378 67.066331 37.069193 0 67.064284-29.996115 67.064284-67.066331 0-16.82619 13.66111-30.485254 30.487301-30.485254 16.828237 0 30.483207 13.659064 30.483207 30.485254 0 70.724643-57.311172 128.036839-128.034792 128.036839z m0 97.550561c-124.623096 0-225.589447-100.966351-225.589447-225.5874 0-16.82619 13.659064-30.485254 30.48423-30.485254 16.82926 0 30.485254 13.659064 30.485254 30.485254 0 90.965599 73.65334 164.617916 164.619963 164.617916 90.966623 0 164.615869-73.65334 164.615869-164.617916 0-16.82619 13.66111-30.485254 30.485254-30.485254 16.830283 0 30.485254 13.659064 30.485254 30.485254 0 124.62105-100.965328 225.587401-225.586377 225.5874z"  horiz-adv-x="1024" />

    
    <glyph glyph-name="-fjfw" unicode="&#58882;" d="M914.7 829.6C640.3 810 146.8 723.7 146.8 218.39999999999998c0-24.9 7.2-62.3-13.3-99.8-13.3-24.1-44.5-82.8-64.1-121.2-9.8-19.6-3.6-43.6 13.3-54.4 16.9-10.7 36.5 0.9 45.4 20.5l38.3 83.7c11.6 25 36.5 38.3 61.4 30.3 57.1-17.8 167.5-41.8 271.7 6.3 14.5 6.8 28.7 13.9 42.4 21.7L379 243.5c-3.8 3.2-5.2 8.3-3.7 12.9 1.5 4.7 5.7 8 10.6 8.4l220.4 18.1L692 482.8c1.9 4.5 6.3 7.4 11.2 7.4 4.9 0 9.3-2.9 11.2-7.4L766 362.4c16.2 39.7 29.7 83.8 40.2 133.1 24.1 101.6 89.1 198.6 139 261.9 22.1 28.6 3.3 74.9-30.5 72.2z m-256-191.5c-54.4-34.8-254.5-188-426.5-477.6-8.9-15.1-30.3-11.6-35.6 6.3-5.4 18.7 8.4 34.4 18.1 50.4 41 66.8 156.1 249.4 428.8 438.3 7.2 5.4 19 6.7 23.5-1.3 4.5-8.1-1.1-10.7-8.3-16.1z m0 0M551-55.5c-2 0-3.9 0.6-5.6 1.8-3.1 2.3-4.5 6.1-3.6 9.8l39.2 164-130 110.1c-2.9 2.5-4.1 6.5-2.9 10.1 1.2 3.6 4.4 6.2 8.2 6.5l171.5 14.1 66.7 155.3c1.5 3.5 4.9 5.7 8.7 5.7 3.8 0 7.2-2.3 8.7-5.7l66.6-155.3L950 246.79999999999995c3.8-0.3 7.1-2.9 8.2-6.5 1.2-3.6 0-7.6-2.9-10.1l-130-110 39.2-164c0.9-3.7-0.5-7.6-3.6-9.8-3.1-2.2-7.2-2.4-10.5-0.5L703 33.10000000000002l-147.2-87.4c-1.5-0.8-3.2-1.2-4.8-1.2z m0 0"  horiz-adv-x="1024" />

    
    <glyph glyph-name="saftone" unicode="&#59129;" d="M739.5328 542.1363200000001c-69.89824 6.62528-142.39744 41.00096-215.51104 102.18496a14.336 14.336 0 0 1-9.92256 3.91168c-4.36224 0-8.73472-1.73056-11.97056-4.75136-13.95712-13.17888-43.6736-38.68672-85.71904-61.4912-43.49952-23.6032-88.19712-37.23264-132.88448-40.51968-7.71072-0.57344-13.62944-6.56384-13.76256-13.9264-0.72704-52.5312-0.89088-98.68288-0.4608-133.43744 0.38912-29.68576 9.216-58.22464 25.53856-82.55488 3.56352-5.29408 6.92224-9.6256 9.99424-12.9024 11.2128-12.04224 38.7584-37.98016 70.66624-68.02432 36.74112-34.6112 78.37696-73.82016 106.25024-102.33856a30.28992 30.28992 0 0 1 21.39136-9.0624c8.22272 0 15.85152 3.10272 21.54496 8.704 40.05888 38.79936 92.98944 84.75648 131.6352 118.31296 27.50464 23.86944 49.21344 42.72128 53.4528 47.89248a408.832 408.832 0 0 0 16.7936 21.32992c9.8304 15.48288 28.3136 52.13184 27.648 79.616-0.3584 15.2576-0.08192 36.89472 0.2048 59.79136l0.09216 7.07584c0.23552 20.40832 0.49152 43.17184 0.44032 66.14016 0 4.08576 0 12.5952-15.42144 14.04928zM631.54176 369.4592h-91.94496v-91.99616a27.37152 27.37152 0 0 0-54.75328 0V369.4592h-92.40576a27.38176 27.38176 0 0 0-27.35104 27.36128 27.38176 27.38176 0 0 0 27.35104 27.32032h92.40576v92.01664a27.38176 27.38176 0 0 0 54.75328 0v-92.01664h91.94496c15.11424 0 27.38176-12.288 27.38176-27.32032a27.40224 27.40224 0 0 0-27.38176-27.36128zM512 896C229.23264 896 0 666.76736 0 384s229.23264-512 512-512 512 229.23264 512 512S794.76736 896 512 896z m286.26944-433.21344l-0.09216-7.26016c-0.31744-25.97888-0.512-45.44512-0.2048-59.5456 1.0752-46.592-31.29344-98.38592-34.99008-104.13056l-0.88064-1.30048-0.78848-0.96256c-3.7888-4.44416-9.82016-11.84768-15.40096-19.4048-0.44032-0.64512-0.9728-0.8192-1.8432-1.10592-13.1072-4.3008-45.84448-32-97.28-82.36032a20226.4576 20226.4576 0 0 0-90.2144-87.90016C542.04416 84.49023999999997 523.29472 76.79999999999995 503.3984 76.79999999999995h-0.62464c-20.1728 0.16384-38.92224 8.06912-52.80768 22.28224-28.22144 28.86656-70.18496 68.4032-107.2128 103.28064-31.78496 29.952-59.22816 55.81824-70.43072 67.81952a150.24128 150.24128 0 0 0-14.21312 18.25792 192.512 192.512 0 0 0-32.53248 105.14432c-0.52224 34.77504-0.36864 80.04608 0.43008 134.53312a55.32672 55.32672 0 0 0 15.98464 38.11328 59.6992 59.6992 0 0 0 38.25664 17.59232c93.05088 6.79936 164.85376 65.64864 191.40608 90.63424a61.89056 61.89056 0 0 0 39.94624 16.70144c0.82944 0.04096 1.72032 0.04096 2.56 0.04096 14.4896 0 28.25216-5.13024 38.71744-14.44864 66.46784-55.58272 130.7136-86.65088 190.89408-92.35456 33.31072-3.15392 54.86592-25.21088 54.9376-56.20736 0.06144-22.77376-0.21504-45.19936-0.44032-65.40288z"  horiz-adv-x="1024" />

    
    <glyph glyph-name="-el-config" unicode="&#58999;" d="M832 768H192a64.19 64.19 0 0 1-64-64v-640a64.19 64.19 0 0 1 64-64h640a64.19 64.19 0 0 1 64 64V704a64.19 64.19 0 0 1-64 64z m-39.45-628.4l-36.12-36.12a25.54 25.54 0 0 0-36.12 0l-277 277a153.27 153.27 0 0 0-204.38 204.39L341.1 482.69l72.23 72.23L311.16 657.1a153.27 153.27 0 0 0 204.35-204.35l277-277a25.54 25.54 0 0 0 0.04-36.15z"  horiz-adv-x="1024" />

    
    <glyph glyph-name="-safe" unicode="&#58883;" d="M932.960209 803.561468L512.364889 882.012591 99.918755 803.561468l-36.732153-5.473334V290.284357c0-30.407412 7.784297-60.693194 23.352892-90.857347 15.568595-30.164153 35.880746-59.355268 60.936453-87.694975 25.055707-28.339708 53.638674-55.09823 85.627272-80.397197 31.988597-25.298967 64.585343-47.800451 97.790236-67.626084 33.204894-19.825632 65.193491-36.245635 95.965792-49.381637 30.772301-13.136002 57.895712-22.014966 81.126975-27.001781l9.852001-1.824445 10.825039 1.824445c22.744744 4.865186 49.138377 13.86578 79.30253 27.001781 30.164153 13.136002 61.301342 29.556004 93.289939 49.381637 31.988597 19.704003 63.490676 42.327117 94.627866 67.626084 31.01556 25.298967 58.74712 52.057489 82.951419 80.397197 24.2043 28.339708 43.786673 57.530823 58.74712 87.694975 14.960447 30.164153 22.379855 60.328305 22.379855 90.857347V798.088134L932.960209 803.561468z m-63.490676-523.250742c0-23.474522-5.594964-46.584155-16.784891-69.328899-11.189928-22.744744-26.150374-44.75971-44.88134-65.801639-18.730966-21.041929-40.259413-40.867561-64.585343-59.355268-24.325929-18.366077-49.624896-35.150968-75.896899-50.233044-26.272004-15.082076-52.908897-28.096449-79.910679-39.164747-27.001782-11.068298-51.935859-19.217484-74.923862-24.569189v456.111177H153.55743V748.219979l354.063903 61.301342 4.986815-0.973037v-380.700796h356.983015l-0.12163-147.536762z m0 0"  horiz-adv-x="1024" />

    
    <glyph glyph-name="gerenxinxi1" unicode="&#58972;" d="M108.248178 147.137422a27.010844 27.010844 0 0 1 54.021689 0c0 96.733867 78.688711 175.445333 175.422577 175.445334 96.711111 0 175.445333-78.734222 175.445334-175.445334a27.010844 27.010844 0 0 1 54.021689 0c0 93.661867-56.433778 174.353067-137.056711 209.942756a162.838756 162.838756 0 0 1 70.382933 133.9392c0 89.770667-73.045333 162.793244-162.793245 162.793244-89.770667 0-162.793244-73.045333-162.793244-162.793244a162.793244 162.793244 0 0 1 70.360178-133.9392c-80.600178-35.589689-137.0112-116.303644-137.0112-209.942756z m229.467022 452.608a108.862578 108.862578 0 0 0 108.7488-108.7488 108.885333 108.885333 0 0 0-108.771556-108.771555 108.885333 108.885333 0 0 0-108.726044 108.771555 108.885333 108.885333 0 0 0 108.7488 108.771556z m324.084622-77.186844h385.979734a27.010844 27.010844 0 0 1 0 54.021689H661.799822a27.010844 27.010844 0 1 1 0-54.021689z m0-165.979022h385.979734a27.010844 27.010844 0 1 1 0 54.021688H661.799822a27.010844 27.010844 0 1 1 0-54.021688z m0-165.979023h385.979734a27.010844 27.010844 0 1 1 0.045511 54.044445H661.799822A27.010844 27.010844 0 1 1 661.754311 190.577778h0.045511zM1137.527467-121.992533H45.511111a45.511111 45.511111 0 0 0-45.511111 45.511111V850.397867a45.511111 45.511111 0 0 0 45.511111 45.511111H1137.550222a45.511111 45.511111 0 0 0 45.511111-45.511111v-926.879289a45.511111 45.511111 0 0 0-45.511111-45.511111zM55.523556-55.682844H1127.537778V829.622044H55.523556v-885.304888z"  horiz-adv-x="1183" />

    
    <glyph glyph-name="-yzsq" unicode="&#58921;" d="M143.897778 97.91200000000003h736.406222c15.709333 0 28.444444 12.735111 28.444444 28.444444v56.88c0 78.421333-63.800889 142.222222-142.222222 142.222223H625.652444V548.506667c33.072 30.612444 53.814222 74.364444 53.814223 122.876444 0 92.341333-75.125333 167.466667-167.466667 167.466667s-167.466667-75.125333-167.466667-167.466667c0-49.337778 21.451556-93.755556 55.512-124.431111v-221.493333H257.675556c-78.421333 0-142.222222-63.800889-142.222223-142.222223v-56.88c0-15.709333 12.735111-28.444444 28.444445-28.444444zM512 781.960889c60.972444 0 110.577778-49.605333 110.577778-110.577778 0-60.972444-49.605333-110.577778-110.577778-110.577778-23.666667 0-45.617778 7.476444-63.623111 20.187556a28.528 28.528 0 0 1-5.751111 4.350222c-25.112 20.287111-41.203556 51.317333-41.203556 86.039111 0 60.974222 49.605333 110.578667 110.577778 110.578667z m-55.065778-268.732445c17.254222-6.024889 35.782222-9.312 55.065778-9.312 19.917333 0 39.029333 3.502222 56.763556 9.911112v-188.368889H456.934222V513.2284440000001zM172.342222 183.236444c0 47.053333 38.28 85.333333 85.333334 85.333334h508.850666c47.053333 0 85.333333-38.28 85.333334-85.333334v-28.435555H172.342222v28.435555zM143.897778-12.749332999999979h736.406222c15.709333 0 28.444444 12.735111 28.444444 28.444444s-12.735111 28.444444-28.444444 28.444445H143.897778c-15.709333 0-28.444444-12.735111-28.444445-28.444445s12.735111-28.444444 28.444445-28.444444z"  horiz-adv-x="1024" />

    
    <glyph glyph-name="yjtwo" unicode="&#58915;" d="M931.072 385.216L848.704 620.8s-56.96 14.72-146.432 26.432A60386.944 60386.944 0 0 0 594.816 832.896c-46.848 80.96-123.456 80.96-170.368 0-28.416-49.472-68.096-117.888-105.152-182.336-52.608-6.528-106.048-16.576-159.168-31.488l-69.12-237.12-56-59.52 16.448-245.568 66.944-61.056v-110.656s11.648-31.232 61.952-32.512c0 0 51.84 1.344 60.16 32.512l0.832 111.104 553.344 0.128v-111.232s11.52-33.28 61.184-33.152c0 0 37.888-0.32 55.104 33.152v111.104l62.528 63.808 10.88 244.16-53.312 60.992zM284.224 134.91200000000003H130.496l-22.016 17.408V264.51199999999994h149.312l39.552-110.016-13.12-19.584z m59.712 171.072c-91.2 0-128.448 64.64-82.88 143.488l165.696 286.976c45.568 79.04 120.192 79.04 165.76 0l165.76-286.976c45.696-78.848 8.384-143.488-82.88-143.488H343.936z m582.528-153.664l-22.016-17.344h-153.6l-13.184 19.584 39.552 110.016h149.248v-112.256zM517.632 478.4a27.392 27.392 0 0 0-27.52 27.456V678.144a27.52 27.52 0 0 0 54.976 0v-172.288a27.456 27.456 0 0 0-27.456-27.456zM521.024 398.208m-32.704 0a32.704 32.704 0 1 1 65.408 0 32.704 32.704 0 1 1-65.408 0Z"  horiz-adv-x="1024" />

    
    <glyph glyph-name="-grbx" unicode="&#58901;" d="M545.792 89.60000000000002c0 61.44 20.992 120.32 59.392 167.936H174.08c-26.112-1.024-48.128 18.944-49.664 45.056v4.608c1.536 29.696 22.528 37.376 49.664 37.376h468.48c20.48 0 38.4 0 46.08-18.432 38.4 19.968 80.896 30.72 123.904 30.72v237.568c0 65.536-53.248 118.272-118.272 118.272h-103.936v2.048c-2.56 100.352-86.016 179.712-186.368 176.64-96.768-2.56-174.592-80.384-176.64-176.64v-2.048H122.88c-65.536 0-118.272-53.248-118.272-118.272v-552.448c0-65.536 53.248-118.272 118.272-118.272h481.28c-37.888 46.592-58.368 105.472-58.368 165.888zM406.528 808.448c33.28 0 60.416-27.136 60.416-60.416s-27.136-60.416-60.416-60.416c-33.28 0-59.904 26.624-60.416 59.904-0.512 33.28 26.624 60.928 59.904 60.928h0.512z m-290.304-322.56c2.048 25.6 24.064 45.056 49.664 43.52h468.48c25.6 1.536 47.616-17.92 49.664-43.52-2.048-25.6-24.064-45.056-49.664-43.52h-468.48c-25.6-1.536-47.616 17.92-49.664 43.52z m353.792-407.04h-295.424c-24.064-3.072-46.08 13.824-49.152 37.888-3.072 24.064 13.824 46.08 37.888 49.152 3.584 0.512 7.68 0.512 11.264 0h295.424c24.064 3.072 46.08-13.824 49.152-37.888 3.072-24.064-13.824-46.08-37.888-49.152-4.096-0.512-7.68-0.512-11.264 0zM795.648 320.51199999999994c-123.904 0-224.256-100.352-224.256-224.256s100.352-224.256 224.256-224.256c123.904 0 224.256 100.352 224.256 224.256 0 123.904-100.352 224.256-224.256 224.256z m87.04-217.088v-26.112h-72.704v-24.576h72.704v-24.576h-72.704v-57.344H778.24v56.832h-73.216v24.576H778.24v24.576h-73.216v26.624h59.904l-71.68 124.928h35.328l51.2-90.624c5.12-8.704 9.216-17.92 13.312-27.136 2.56 6.144 7.68 15.872 14.336 28.672l48.128 89.088h37.376l-70.656-125.44h60.416z"  horiz-adv-x="1024" />

    
    <glyph glyph-name="saftzd" unicode="&#58968;" d="M910.222222-71.11111100000005H113.777778c-51.313778 0-56.888889 36.465778-56.888889 56.888889V611.555556c0 54.215111 41.130667 56.888889 56.888889 56.888888h56.888889V782.222222c4.778667 2.446222 127.715556 56.888889 228.124444 56.888889 47.047111 0 84.593778-12.572444 112.355556-37.432889C538.908444 826.538667 576.568889 839.111111 623.502222 839.111111 794.339556 839.111111 853.333333 782.222222 853.333333 782.222222v-113.777778h56.888889s56.888889-0.568889 56.888889-56.888888v-625.777778c0-20.423111-16.270222-56.888889-56.888889-56.888889zM492.145778 758.385778C455.338667 788.252444 398.222222 782.222222 398.222222 782.222222 303.843556 782.222222 227.555556 725.333333 227.555556 725.333333v-568.888889c58.88 26.112 180.280889 64.739556 264.590222 0.910223V758.385778zM235.633778 102.17244400000004h250.538666c-48.867556 60.188444-169.984 31.175111-250.538666 0zM796.444444 725.333333s-61.326222 56.888889-170.666666 56.888889c-36.124444 0-71.850667-0.796444-95.630222-23.836444v-601.031111c84.309333 63.829333 207.416889 25.201778 266.296888-0.910223V725.333333zM536.064 102.17244400000004L796.444444 99.55555600000002s-146.033778 100.408889-260.380444 2.616888z m373.987556 507.448889L853.333333 611.555556v-568.888889H170.666667V611.555556l-56.832-1.934223L113.777778-14.222221999999988h796.444444l-0.170666 623.843555zM597.333333 327.11111100000005a28.444444 28.444444 0 0 0 0 56.888889h113.777778a28.444444 28.444444 0 0 0 0-56.888889H682.666667h-85.333334z m113.777778 113.777778H682.666667h-85.333334a28.444444 28.444444 0 0 0 0 56.888889h113.777778a28.444444 28.444444 0 0 0 0-56.888889z m0 113.777778H682.666667h-85.333334a28.444444 28.444444 0 0 0 0 56.888889h113.777778a28.444444 28.444444 0 0 0 0-56.888889z m-398.222222-227.555556a28.444444 28.444444 0 0 0 0 56.888889h113.777778a28.444444 28.444444 0 0 0 0-56.888889H398.222222 312.888889z m113.777778 113.777778H398.222222 312.888889a28.444444 28.444444 0 0 0 0 56.888889h113.777778a28.444444 28.444444 0 0 0 0-56.888889z m0 113.777778H398.222222 312.888889a28.444444 28.444444 0 0 0 0 56.888889h113.777778a28.444444 28.444444 0 0 0 0-56.888889z"  horiz-adv-x="1024" />

    
    <glyph glyph-name="-salary" unicode="&#58970;" d="M387.017 634.845h242.129c74.925 0 132.079 162.482 132.079 162.482 0 48.66-4.872 85.474-88.07 88.068-83.172 2.62-103.098-58.158-162.872-58.158-61.266 0-91.91 47.78-167.301 58.158-75.365 10.427-88.044-39.408-88.044-88.068 0-0.001 57.129-162.482 132.079-162.482z m255.346-50.227H387.017c-282.762 0-352.204-555.51-352.204-555.51 0-72.967 59.138-146.253 132.08-146.253h695.57c72.942 0 132.078 73.286 132.078 146.253 0 0-69.465 555.51-352.178 555.51z m28.982-426.93c17.036 0 30.842-13.83 30.842-30.867 0-17.035-13.805-30.865-30.842-30.865H546.143v-80.971c0-17.035-13.805-30.867-30.817-30.867-17.036 0-30.84 13.832-30.84 30.867v80.97h-126.01c-17.035 0-30.84 13.83-30.84 30.866 0 17.037 13.805 30.867 30.84 30.867h126.01V196.85000000000002h-126.01c-17.035 0-30.84 13.806-30.84 30.842s13.805 30.89 30.84 30.89h85.181l-87.212 154.99c-8.518 14.785-3.452 33.633 11.284 42.15 14.759 8.519 33.607 3.476 42.125-11.259l105.008-185.88h5.31l105.008 185.88c8.517 14.735 27.365 19.779 42.101 11.258 14.76-8.516 19.828-27.364 11.309-42.148l-87.213-154.99h79.968c17.036 0 30.842-13.854 30.842-30.891 0-17.035-13.805-30.842-30.842-30.842H546.143v-39.162h125.202z"  horiz-adv-x="1024" />

    
    <glyph glyph-name="menjin" unicode="&#58962;" d="M512-128c-67.2 0-134.4 12.8-198.4 41.6-60.8 25.6-115.2 64-163.2 108.8-48 48-83.2 102.4-108.8 163.2C12.8 249.6 0 316.8 0 384c0 86.4 25.6 176 67.2 256 6.4 6.4 16 12.8 22.4 12.8 3.2 0 6.4 0 6.4-3.2 9.6-6.4 16-22.4 6.4-35.2C64 540.8 41.6 460.8 41.6 384 48 128 256-80 512-80S976 128 976 384 768 848 512 848c-80 0-156.8-19.2-230.4-60.8-6.4-3.2-12.8-3.2-16-3.2-9.6 0-16 3.2-19.2 9.6-3.2 9.6-3.2 25.6 9.6 35.2C336 870.4 425.6 896 512 896c67.2 0 134.4-12.8 198.4-41.6 60.8-25.6 115.2-64 163.2-108.8 48-48 83.2-102.4 108.8-163.2 25.6-64 41.6-131.2 41.6-198.4s-12.8-134.4-41.6-198.4c-25.6-60.8-64-115.2-108.8-163.2-48-48-102.4-83.2-163.2-108.8-64-28.8-131.2-41.6-198.4-41.6zM790.4 620.8h-38.4v28.8c0 51.2-41.6 89.6-92.8 89.6-51.2 0-92.8-41.6-92.8-89.6v-28.8h-38.4s-3.2 0-3.2-3.2v-182.4s0-3.2 3.2-3.2h259.2s3.2 0 3.2 3.2V620.8c3.2 0 0 0 0 0z m-60.8 0h-137.6v28.8c0 35.2 32 67.2 67.2 67.2s67.2-28.8 67.2-67.2c3.2 0 3.2-28.8 3.2-28.8z m-406.4-105.6v-384H608v275.2h-76.8c-12.8 0-25.6 12.8-25.6 25.6V512h-182.4z m214.4-137.6h35.2v-70.4h-35.2v70.4z m105.6-281.6H284.8V553.6h224v32h-256v-524.8h428.8V409.6h-38.4V96z"  horiz-adv-x="1024" />

    
    <glyph glyph-name="-nodata" unicode="&#59057;" d="M241.371429 316.050286v-28.16h-28.233143c-10.459429 0-15.652571-5.266286-15.652572-15.725715 0-10.386286 5.193143-15.652571 15.652572-15.652571H241.371429v-28.233143c0-10.386286 5.193143-15.652571 15.652571-15.652571 8.411429 0 12.580571 5.266286 12.580571 15.652571v28.233143h31.305143c8.411429 0 12.580571 5.266286 12.580572 15.652571 0 10.459429-4.169143 15.725714-12.580572 15.725715h-31.305143V315.97714299999996c0 10.459429-4.169143 15.725714-12.580571 15.725714-10.459429 0-15.652571-5.266286-15.652571-15.725714z m1410.633142-59.538286V291.108571c0 12.507429-6.290286 18.797714-18.797714 18.797715-12.580571 0-18.870857-6.290286-18.870857-18.797715v-34.523428H1579.885714c-10.459429 0-15.652571-6.290286-15.652571-18.797714 0-10.459429 5.193143-15.652571 15.652571-15.652572h34.450286v-37.668571c0-10.386286 6.290286-15.652571 18.870857-15.652572 12.507429 0 18.797714 5.266286 18.797714 15.652572v37.668571h34.450286c12.580571 0 18.797714 5.193143 18.797714 15.652572 0 12.507429-6.217143 18.797714-18.797714 18.797714h-34.450286zM68.973714 591.9451429999999c-12.580571 0-18.797714-6.290286-18.797714-18.797714 0-10.459429 6.217143-15.725714 18.797714-15.725715h34.450286v-37.595428c0-10.459429 6.290286-15.652571 18.797714-15.652572 10.459429 0 15.725714 5.193143 15.725715 15.652572v37.595428H175.542857c10.459429 0 15.652571 5.266286 15.652572 15.725715 0 12.507429-5.193143 18.797714-15.652572 18.797714h-37.595428v34.450286c0 12.580571-5.266286 18.797714-15.725715 18.797714-12.507429 0-18.797714-6.217143-18.797714-18.797714v-34.450286H68.973714zM413.769143 830.171429a63.780571 63.780571 0 0 1-18.797714-47.030858v-626.907428c0-18.797714 6.290286-34.523429 18.797714-47.030857 14.628571-12.580571 30.281143-18.797714 47.030857-18.797715h50.176c2.048-10.459429 7.314286-19.894857 15.652571-28.233142l9.435429-3.145143c64.731429-16.676571 100.278857-37.595429 106.569143-62.683429 6.217143-16.749714 4.169143-30.281143-6.290286-40.740571-6.290286-6.290286-4.169143-12.580571 6.290286-18.797715 8.338286-4.169143 17.773714 2.048 28.16 18.797715 4.242286 6.290286 6.290286 16.676571 6.290286 31.305143l-3.145143 18.870857c-14.628571 35.474286-56.393143 62.683429-125.366857 81.481143l-9.435429 18.797714c0 6.290286 4.242286 11.483429 12.580571 15.652571v3.145143l18.797715 6.290286 31.378285 3.145143c33.426286 0 65.828571-5.266286 97.133715-15.725715l15.652571-6.217142 28.233143-18.797715h3.145143c81.481143-56.466286 117.028571-99.328 106.569143-128.585143-2.048-6.217143-2.048-11.483429 0-15.652571 2.121143-4.169143 7.314286-6.290286 15.652571-6.290286l12.580572 6.290286c20.918857 31.378286-5.266286 78.409143-78.409143 141.092571h279.04c-41.837714-35.547429-67.949714-68.973714-78.409143-100.352-6.217143-16.676571-6.217143-30.281143 0-40.740571l15.725714-9.362286 6.217143 3.072c8.411429 4.242286 10.459429 11.556571 6.290286 21.942857-8.338286 29.257143 27.136 72.118857 106.569143 128.585143l50.176 25.014857c35.547429 12.580571 66.852571 18.870857 94.061714 18.870858l31.305143-3.145143 9.435428-6.290286h3.145143l6.217143-3.145143v-3.145143c8.411429-2.048 12.580571-7.314286 12.580571-15.652571l-6.290285-18.797714c-73.142857-18.797714-116.004571-46.006857-128.512-81.481143l6.290285-50.176c10.386286-16.749714 19.821714-22.966857 28.16-18.797715 10.459429 6.217143 12.580571 12.507429 6.290286 18.797715-10.459429 10.459429-13.604571 23.990857-9.435428 40.740571 12.580571 27.136 49.152 48.054857 109.714285 62.683429l6.290286 3.145143a54.637714 54.637714 0 0 1 15.652571 28.233142 63.780571 63.780571 0 0 1 47.030858 18.797715 63.780571 63.780571 0 0 1 18.797714 47.030857V783.140571A71.094857 71.094857 0 0 1 1419.995429 830.171429a71.094857 71.094857 0 0 1-47.030858 18.797714H460.8A63.780571 63.780571 0 0 1 413.769143 830.171429z m329.142857-266.459429c0 8.338286-4.169143 12.580571-12.507429 12.580571H523.483429c-10.459429 0-15.652571-5.266286-15.652572-15.725714 0-10.459429 5.193143-15.652571 15.652572-15.652571h6.290285c14.628571-50.176 18.797714-82.578286 12.507429-97.206857-10.459429-35.474286-15.652571-73.142857-15.652572-112.786286 0-43.885714 7.314286-75.264 21.942858-94.061714 10.459429-14.628571 9.435429-42.861714-3.145143-84.626286h-3.145143l-9.362286-9.435429-9.435428-6.290285-3.145143-3.072-3.145143-6.290286-6.217143-9.435429H460.8a30.061714 30.061714 0 0 0-21.942857 9.435429 29.769143 29.769143 0 0 0-12.507429 25.088V783.140571c0 22.966857 11.483429 34.523429 34.450286 34.523429h912.164571c23.04 0 34.523429-11.556571 34.523429-34.523429v-626.907428c0-23.04-11.483429-34.523429-34.523429-34.523429 0 4.169143-3.072 9.435429-9.362285 15.725715l-12.580572 12.507428-9.362285 3.145143-3.145143 3.145143c-12.507429 41.764571-12.507429 69.997714 0 84.626286 12.507429 20.918857 19.821714 52.224 21.942857 94.061714 0 41.764571-6.290286 79.36-18.797714 112.786286-6.290286 16.749714-2.121143 49.152 12.507428 97.206857h6.290286c10.459429 0 15.652571 5.193143 15.652571 15.652571 0 10.459429-5.193143 15.725714-15.652571 15.725714h-203.776c-4.169143 10.386286-11.483429 13.531429-21.942857 9.362286-10.459429-4.169143-13.531429-10.459429-9.362286-18.797714l9.362286-9.435429c4.169143-6.217143 8.411429-9.362286 12.580571-9.362285-10.459429-50.176-6.290286-101.376 12.507429-153.6v-6.290286c14.628571-41.764571 12.580571-85.650286-6.290286-131.657143-16.676571-48.054857-15.652571-86.747429 3.145143-116.004571l-31.305143-18.797715H758.491429l-31.305143 18.797715c20.918857 31.378286 21.942857 70.070857 3.145143 116.004571-18.797714 46.006857-20.918857 89.892571-6.290286 131.657143l3.145143 6.290286c16.676571 54.345143 19.821714 105.545143 9.362285 153.6 8.411429 4.169143 10.459429 9.362286 6.290286 15.652571zM564.224 544.914286h141.092571c8.338286-56.393143 5.193143-103.424-9.435428-141.092572v-3.072c-18.797714-50.176-17.773714-102.4 3.145143-156.745143 16.749714-37.668571 16.749714-67.949714 0-90.916571l-3.145143 3.145143-53.248 12.507428H636.342857L614.4 171.885714h-6.290286l-18.797714-3.145143h-6.290286c6.290286 43.885714 3.145143 74.166857-9.362285 90.916572-10.459429 14.628571-15.652571 39.716571-15.652572 75.264 0 37.595429 5.193143 72.045714 15.652572 103.424 6.290286 16.676571 3.145143 52.224-9.435429 106.569143z m617.545143 0h141.092571c-16.749714-48.054857-20.918857-83.602286-12.580571-106.569143 10.459429-31.378286 15.725714-65.828571 15.725714-103.424 0-35.547429-5.266286-60.635429-15.725714-75.264-14.628571-22.966857-16.676571-53.321143-6.217143-90.916572H1294.628571l-18.797714 3.145143H1272.685714c-29.257143 0-58.514286-6.290286-87.771428-18.797714-14.628571 20.918857-14.628571 51.2 0 90.916571 18.797714 50.102857 20.918857 102.4 6.290285 156.745143l-3.145142 3.072c-16.749714 50.176-18.797714 97.206857-6.290286 141.092572z m-257.024-235.081143c-4.169143 2.048-9.435429 2.048-15.652572 0l-94.061714-47.030857-6.290286-9.435429c-2.048-6.217143-2.048-10.459429 0-12.507428 4.169143-10.459429 11.483429-12.580571 21.942858-6.290286l87.771428 43.885714 97.206857-43.885714c10.459429-6.290286 17.773714-4.169143 21.942857 6.290286 4.169143 10.459429 2.048 17.773714-6.290285 21.942857h-3.145143l-103.424 47.030857z m53.248 325.997714c-10.386286 0-15.652571-6.290286-15.652572-18.797714 0-10.459429 5.266286-15.725714 15.652572-15.725714 41.837714 0 87.771429 18.870857 137.947428 56.466285l9.435429 6.290286c8.338286 6.217143 10.459429 13.531429 6.217143 21.942857-8.338286 8.338286-15.652571 10.386286-21.942857 6.217143L1097.142857 682.861714c-43.885714-31.378286-83.602286-47.030857-119.149714-47.030857z m-260.169143 28.233143l9.435429-6.290286c50.176-37.595429 97.133714-56.466286 141.019428-56.466285 10.459429 0 15.725714 5.266286 15.725714 15.725714v3.145143c0 10.386286-5.266286 15.652571-15.725714 15.652571-37.595429 0-78.336 15.652571-122.221714 47.030857l-9.435429 9.362286c-10.386286 4.169143-17.700571 2.121143-21.942857-6.217143-6.217143-6.290286-5.193143-13.604571 3.145143-21.942857z"  horiz-adv-x="1755" />

    
    <glyph glyph-name="-cl" unicode="&#58932;" d="M513.1 565.4h-40.7c-10.7 0-19.5-8.7-19.5-19.5v-321.8c0-10.7 8.7-19.5 19.5-19.5h40.7c10.7 0 19.5 8.7 19.5 19.5V545.9c0 10.7-8.8 19.5-19.5 19.5z m0.8-216.3h-36.3c-7.2 0-13 5.8-13 13s5.8 13 13 13h36.3c7.2 0 13-5.8 13-13s-5.9-13-13-13z m0 56.3h-36.3c-7.2 0-13 5.8-13 13s5.8 13 13 13h36.3c7.2 0 13-5.8 13-13s-5.9-13-13-13zM515.7 831c-246.3 0-446-199.7-446-446s199.7-446 446-446 446 199.7 446 446S762 831 515.7 831zM411.2 224.10000000000002c0-25.1-20.4-45.4-45.4-45.4H325c-25.1 0-45.4 20.4-45.4 45.4V545.9c0 25.1 20.4 45.4 45.4 45.4h40.7c25.1 0 45.4-20.4 45.4-45.4v-321.8z m147.3 0c0-25.1-20.4-45.4-45.4-45.4h-40.7c-25.1 0-45.4 20.4-45.4 45.4V545.9c0 25.1 20.4 45.4 45.4 45.4h40.7c25.1 0 45.4-20.4 45.4-45.4v-321.8z m192.4 275l-56.6-278c-2.4-11.9-9.3-22.1-19.5-28.8-7.5-5-16.2-7.6-25-7.6-3 0-6.1 0.3-9.1 0.9l-32.4 6.6c-24.5 5-40.5 29-35.5 53.6l56.6 278c5 24.5 29 40.5 53.6 35.5l32.4-6.6c24.6-5 40.5-29.1 35.5-53.6zM710.3 527.2l-32.4 6.6c-1.3 0.3-2.6 0.4-3.9 0.4-9.1 0-17.2-6.4-19.1-15.6l-56.6-278c-2.1-10.5 4.7-20.8 15.2-23l32.4-6.6c5.1-1 10.3 0 14.6 2.9 4.4 2.9 7.3 7.3 8.4 12.3l56.6 278c2.1 10.6-4.7 20.9-15.2 23zM365.7 565.4H325c-10.7 0-19.5-8.7-19.5-19.5v-321.8c0-10.7 8.7-19.5 19.5-19.5h40.7c10.7 0 19.5 8.7 19.5 19.5V545.9c0 10.7-8.7 19.5-19.5 19.5z m-6-242.2h-36.3c-7.2 0-13 5.8-13 13s5.8 13 13 13h36.3c7.2 0 13-5.8 13-13s-5.8-13-13-13z m0 56.2h-36.3c-7.2 0-13 5.8-13 13s5.8 13 13 13h36.3c7.2 0 13-5.8 13-13 0-7.1-5.8-13-13-13z m0 56.3h-36.3c-7.2 0-13 5.8-13 13s5.8 13 13 13h36.3c7.2 0 13-5.8 13-13s-5.8-13-13-13z"  horiz-adv-x="1024" />

    
    <glyph glyph-name="-el-intance" unicode="&#58893;" d="M704.41405438 466.49337a60.50736187 58.92288094 0 1 1 121.01472374 0 60.50736187 58.92288094 0 1 1-121.01472374 0ZM489.81593094 466.49337a60.50736187 58.92288094 0 1 1 121.01472468 0 60.50736187 58.92288094 0 1 1-121.01472468 0ZM281.15961125 466.49337a60.50736187 58.92288094 0 1 1 121.01472375 0 60.50736187 58.92288094 0 1 1-121.01472375 0ZM1111.82368906-71.73496312999998a44.56352344 44.56352344 0 0 0-27.23326406 9.30882469L944.75999094 45.61564874999999a44.58332906 44.58332906 0 1 0 54.56555906 70.50939656l67.93461562-52.58495718V87.60439030999999a44.56352344 44.56352344 0 0 0 33.86827782 43.17710344 186.77067844 186.77067844 0 0 1 27.827445 353.43825563 44.56352344 44.56352344 0 0 0 34.95760875 81.99688406 275.79869531 275.79869531 0 0 0-7.52628469-511.29216v-82.59106406a44.56352344 44.56352344 0 0 0-44.56352344-44.0683725zM345.033995-95.99732625000001a44.56352344 44.56352344 0 0 0-44.56352344 44.56352344V90.57529219000003a397.50663 397.50663 0 0 0 128.7390675 773.42470781h261.04321782a397.556145 397.556145 0 1 0 0-795.11228906H573.49632594L372.26725906-87.08462155999996a44.56352344 44.56352344 0 0 0-27.23326406-8.91270469z m84.472635 870.47415937a308.37958219 308.37958219 0 0 1-73.77738937-607.84646062 44.56352344 44.56352344 0 0 0 33.86827781-43.27613344v-84.47263406l141.414915 108.93305719a44.56352344 44.56352344 0 0 0 27.23326406 9.30882469h132.40317938a308.42909719 308.42909719 0 1 1-1e-8 616.85819531H429.50663z"  horiz-adv-x="1387" />

    
    <glyph glyph-name="-el-task" unicode="&#58952;" d="M128 896h64v-128a64 64 0 0 1 64-64h512a64 64 0 0 1 64 64V896h64a128 128 0 0 0 128-128v-768a128 128 0 0 0-128-128H128a128 128 0 0 0-128 128V768a128 128 0 0 0 128 128z m641.152-355.776l-303.936-303.936-175.872 205.184-72.896-62.464 243.328-283.904 377.216 377.216-67.84 67.904zM768 896v-64a64 64 0 0 0-64-64H320a64 64 0 0 0-64 64V896h512z"  horiz-adv-x="1024" />

    
    <glyph glyph-name="saftpc" unicode="&#58904;" d="M640-128H384C172.8-128 0 44.799999999999955 0 256V512C0 723.2 172.8 896 384 896h256c211.2 0 384-172.8 384-384v-256c0-211.2-172.8-384-384-384zM696.32 608h-104.96v34.56c0 20.48-16.64 34.56-34.56 34.56H418.56c-17.92 0-34.56-16.64-34.56-34.56v-34.56h-102.4c-39.68-2.56-70.4-33.28-70.4-71.68V448h555.52v88.32c0 39.68-30.72 71.68-70.4 71.68z m-275.2-1.28v17.92c0 10.24 7.68 17.92 16.64 17.92h102.4c10.24 0 16.64-7.68 16.64-17.92l2.56-17.92H421.12zM454.4 392.96c0-20.48 16.64-34.56 34.56-34.56 17.92 0 34.56 16.64 34.56 34.56 0 6.4-2.56 12.8-3.84 17.92h-61.44c-2.56-6.4-3.84-11.52-3.84-17.92zM866.56 339.20000000000005c-6.4 15.36-70.4-92.16-119.04-49.92-49.92 43.52 57.6 113.92 40.96 117.76-34.56 7.68-74.24-3.84-101.12-32-28.16-32-34.56-76.8-16.64-112.64L541.44 129.27999999999997c-14.08-15.36-14.08-39.68 2.56-53.76s40.96-14.08 55.04 2.56l129.28 135.68c39.68-14.08 84.48-3.84 115.2 28.16 24.32 26.88 33.28 66.56 23.04 97.28zM577.28 90.88c-3.84-6.4-12.8-6.4-17.92 0-6.4 3.84-6.4 12.8 0 17.92 3.84 6.4 12.8 6.4 17.92 0 6.4-3.84 6.4-11.52 0-17.92zM637.44 325.12c0 34.56 20.48 64 42.24 85.76h-122.88c2.56-6.4 2.56-12.8 2.56-17.92 0-39.68-30.72-71.68-70.4-71.68s-70.4 33.28-70.4 71.68c0 6.4 0 12.8 2.56 17.92H211.2v-195.84c0-40.96 30.72-71.68 70.4-71.68h241.92l122.88 128c-7.68 14.08-8.96 33.28-8.96 53.76z m0 0"  horiz-adv-x="1024" />

    
    <glyph glyph-name="-el-meeting" unicode="&#58898;" d="M434.093791 794.718048m-101.281953 0a101.281952 101.281952 0 1 1 202.563905 0 101.281952 101.281952 0 1 1-202.563905 0ZM434.093791 721.058446a172.310854 172.310854 0 0 0 172.310854-172.310854V435.627489H263.098286V548.7475919999999a172.310854 172.310854 0 0 0 170.995505 172.310854zM822.12205 794.718048m-101.281952 0a101.281952 101.281952 0 1 1 202.563905 0 101.281952 101.281952 0 1 1-202.563905 0ZM822.12205 721.058446a172.310854 172.310854 0 0 0 172.310854-172.310854V435.627489H649.811196V548.7475919999999a172.310854 172.310854 0 0 0 172.310854 172.310854zM434.093791 263.316635m-101.281953 0a101.281952 101.281952 0 1 1 202.563905 0 101.281952 101.281952 0 1 1-202.563905 0ZM434.093791 189.65703299999996a172.310854 172.310854 0 0 0 172.310854-172.310854v-112.462428H263.098286v112.462428a172.310854 172.310854 0 0 0 170.995505 172.310854zM822.12205 263.316635m-101.281952 0a101.281952 101.281952 0 1 1 202.563905 0 101.281952 101.281952 0 1 1-202.563905 0ZM822.12205 189.65703299999996a172.310854 172.310854 0 0 0 172.310854-172.310854v-112.462428H649.811196v112.462428a172.310854 172.310854 0 0 0 172.310854 172.310854zM1026.65898-62.232497999999964H282.828537a226.240206 226.240206 0 0 0 0 451.822736h743.830443a32.226076 32.226076 0 0 1 31.568401 32.88375 31.568401 31.568401 0 0 1-31.568401 32.883751H282.828537A287.403982 287.403982 0 0 1 0.02828 164.00770699999998a288.061657 288.061657 0 0 1 282.800257-292.007707h743.830443a32.883751 32.883751 0 0 1 0 65.767502z"  horiz-adv-x="1059" />

    
    <glyph glyph-name="-outlogin" unicode="&#58889;" d="M907.083294 405.290767L744.650391 561.6712279999999c-12.992753 12.51328-32.484894 12.51328-45.477647 0-12.997572-12.508461-12.997572-31.275369 0-43.792263l107.200752-103.204744H494.505261c-19.49696 0-32.489713-12.508461-32.489713-31.275369 0-18.771727 12.992753-31.275369 32.489713-31.27537h311.868235l-107.195934-103.209562c-12.992753-12.51328-12.992753-31.285007 0-43.788649 6.499388-6.263266 12.992753-9.383454 22.738824-9.383455 9.750889 0 16.245459 3.129826 22.743642 9.383455l162.432904 159.501854s0 3.13344 3.251501 3.13344c9.741252 9.383454 9.741252 28.141929-3.251501 37.525383l-0.009638 0.004819z m0 0M819.366249 164.46644700000002c-19.492141 0-32.484894-12.516894-32.484894-31.275369v-62.559172c0-18.758475-12.997572-31.270551-32.489713-31.270551H202.123144c-19.490936 0-32.483689 12.512075-32.48369 31.270551V696.160979c0 18.762089 12.992753 31.275369 32.48369 31.275369h552.268498c19.492141 0 32.489713-12.51328 32.489713-31.275369v-62.555558c0-18.762089 12.992753-31.275369 32.484894-31.275369s32.484894 12.51328 32.484895 31.275369v62.555558c0 53.167285-42.226146 93.826108-97.459502 93.826108H202.123144c-55.222513 0-97.458296-40.658824-97.458297-93.826108V70.63190599999996c0-53.162466 42.235784-93.821289 97.458297-93.82129h552.268498c55.233355 0 97.459501 40.658824 97.459502 93.82129v62.559172c0 18.763294-12.992753 31.275369-32.484895 31.275369z m0 0"  horiz-adv-x="1024" />

    
    <glyph glyph-name="renshu" unicode="&#59098;" d="M822.193 298.654c-22.055 0-39.936 17.329-39.936 38.675s17.88 38.676 39.936 38.676c101.691 0 184.438 80.148 184.438 178.649 0 98.54-82.707 178.688-184.438 178.688-22.055 0-39.936 17.329-39.936 38.675s17.88 38.637 39.936 38.637c145.723 0 264.271-114.846 264.271-256s-118.548-256-264.27-256z m396.052-341.308c-23.237 0-42.023 16.778-42.023 37.534 0 173.174-157.893 314.053-351.902 314.053-23.237 0-42.063 16.817-42.063 37.533S801.083 384 824.32 384c116.46 0 225.95-40.487 308.303-113.98 82.314-73.49 127.685-171.165 127.685-275.14 0-20.756-18.826-37.534-42.063-37.534zM915.968-128c-22.174 0-40.172 17.723-40.172 39.66 0 216.694-178.413 393.02-397.785 393.02-219.293 0-397.745-176.326-397.745-393.02 0-21.898-17.96-39.66-40.133-39.66S0-110.277 0-88.34c0 63.764 12.642 125.637 37.573 183.887a470.41 470.41 0 0 0 102.44 150.095A480.06 480.06 0 0 0 478.05 384 480.06 480.06 0 0 0 816.09 245.642a470.489 470.489 0 0 0 102.4-150.095c24.97-58.29 37.612-120.123 37.612-183.887 0-21.898-17.96-39.66-40.172-39.66zM478.011 298.654c-167.7 0-304.167 133.986-304.167 298.692C173.844 762.014 310.31 896 478.05 896s304.207-133.986 304.207-298.654c0-164.706-136.467-298.692-304.207-298.692z m0 512c-119.769 0-217.245-95.705-217.245-213.308C260.726 479.705 358.242 384 478.05 384c119.808 0 217.285 95.705 217.285 213.346 0 117.603-97.477 213.308-217.285 213.308z"  horiz-adv-x="1260" />

    
    <glyph glyph-name="icon-test-copy" unicode="&#58884;" d="M946.903771 113.74811399999999c-52.896914 106.949486-123.556571 209.236114-197.178514 300.5696a3265.748114 3265.748114 0 0 1 27.922286 117.738057c35.898514 3.3024 65.199543 29.502171 73.259886 63.828115a1446.162286 1446.162286 0 0 0 121.728 11.128685C1005.520457 539.465143 1024 463.663543 1024 383.626971c0-98.980571-28.2624-191.469714-77.096229-269.878857z m-175.469714 711.113143c-2.314971-22.509714-7.504457-67.068343-17.546971-128.3584-36.2752-7.131429-64.087771-37.898971-66.830629-75.538286a1845.317486 1845.317486 0 0 1-98.417371-25.735314 2924.5696 2924.5696 0 0 1-42.042515 42.250972 3136.380343 3136.380343 0 0 1-84.399542 80 82.614857 82.614857 0 0 1 6.9888 33.272685c0 14.112914-3.554743 27.406629-9.786515 39.0656C487.939657 827.2237709999999 519.826286 862.266514 555.3408 893.769143a508.302629 508.302629 0 0 0 216.093257-68.907886z m-351.967086 2.007772a82.6368 82.6368 0 0 1-33.495771 7.098514c-15.941486 0-30.800457-4.586057-43.4688-12.3904a2637.787429 2637.787429 0 0 1-37.390629 30.336A508.064914 508.064914 0 0 0 477.604571 894.442057c-20.706743-21.489371-40.034743-44.119771-58.1376-67.573028z m-33.495771-159.3344c14.167771 0 27.505371 3.573029 39.1936 9.845028a3128.031086 3128.031086 0 0 0 104.6272-100.286171c-85.445486-27.808914-162.369829-59.2128-227.653486-89.234286 20.9408 59.487086 46.891886 120.736914 78.946743 179.924114 1.623771-0.095086 3.232914-0.248686 4.885943-0.248685z m-185.640229-336.201143a1903.144229 1903.144229 0 0 1-8.949028-40.462629 1243.106743 1243.106743 0 0 0-28.767086 64.577829 2170.053486 2170.053486 0 0 0 50.647772 27.797943 1753.973029 1753.973029 0 0 1-12.931658-51.913143z m17.320229-213.917257c2.925714 0.263314 5.814857 0.6656 8.649143 1.225142 52.344686-80.003657 119.233829-162.720914 204.511086-240.552228-83.525486 13.3632-160.376686 46.976-225.320229 95.6672 0.896 23.314286 3.690057 75.048229 12.16 143.659886z m55.559314 28.712228c12.5184 14.562743 20.136229 33.451886 20.136229 54.1184 0 33.8944-20.395886 63.067429-49.532343 76.028343a1817.322057 1817.322057 0 0 0 9.665829 43.882057 1674.408229 1674.408229 0 0 0 25.629257 96.672914c4.052114 1.982171 8.104229 3.964343 12.229485 5.950172 76.229486 36.688457 172.002743 77.092571 280.824686 110.837028 39.358171-41.2416 79.297829-85.6064 118.070857-132.410514-40.6528-152.766171-100.425143-331.658971-187.604114-513.872457-97.813943 82.501486-172.540343 172.273371-229.419886 258.794057z m357.822172 404.666514a1780.9152 1780.9152 0 0 0 69.902628 17.664 83.733943 83.733943 0 0 1 24.023772-23.467885 3168.380343 3168.380343 0 0 0-18.194286-78.939429 2595.598629 2595.598629 0 0 1-75.732114 84.743314z m311.990857 108.898743a1513.493943 1513.493943 0 0 1-97.682286-9.775543 83.6608 83.6608 0 0 1-37.7088 39.072915c6.897371 42.177829 11.552914 76.606171 14.581029 101.668571a516.205714 516.205714 0 0 0 120.810057-130.965943zM252.039314 824.5540570000001c12.046629-9.373257 31.323429-24.645486 55.950629-45.037714a82.607543 82.607543 0 0 1-5.233372-28.759772c0-24.667429 10.847086-46.7968 27.9552-62.050742-41.472-77.487543-72.886857-157.893486-96.647314-233.578058a2251.370057 2251.370057 0 0 1-91.249371-48.431542c-45.568 126.420114-58.071771 225.247086-60.9536 254.343314a516.022857 516.022857 0 0 0 170.177828 163.514514z m-213.028571-244.973714C48.577829 528.932571 65.499429 459.3152 95.085714 379.13965700000006c-38.897371-23.131429-69.697829-43.143314-91.2896-57.764571A513.704229 513.704229 0 0 0 0 383.626971c0 69.376 13.897143 135.559314 39.010743 195.953372z m-24.546743-316.8768c17.963886 12.639086 52.5568 36.125257 100.8128 65.133714a1297.258057 1297.258057 0 0 1 32.892343-72.235886c-13.165714-14.723657-21.251657-34.088229-21.251657-55.354514 0-29.026743 14.961371-54.590171 37.551543-69.489371-5.741714-45.140114-9.084343-83.456-11.022629-112.241372-67.0464 65.854171-116.081371 149.961143-138.9824 244.187429zM556.214857-126.44205699999998c79.147886 167.146057 135.753143 331.274971 175.989029 475.384686 69.485714-89.406171 132.736-186.170514 178.724571-285.860572-85.244343-105.870629-211.6608-177.2288-354.7136-189.524114z"  horiz-adv-x="1024" />

    
    <glyph glyph-name="icon_sb" unicode="&#58949;" d="M662.3 451.4c-24.7 0-44.8 20.1-44.8 44.8 0 58.7-47.6 106.3-106.3 106.3-58.7 0-106.3-47.6-106.3-106.3 0-16-8.5-30.8-22.4-38.8-13.9-8-30.9-8-44.8 0-13.9 8-22.4 22.8-22.4 38.8 0 108.2 87.7 195.9 195.9 195.9s195.9-87.7 195.9-195.9c0-24.7-20.1-44.8-44.8-44.8z m0 0M799.4 451.4c-24.7 0-44.8 20.1-44.8 44.8 0 134.5-109 243.5-243.5 243.5s-243.5-109-243.5-243.5c-0.1-24.6-20.1-44.6-44.8-44.6-24.7 0-44.7 19.9-44.8 44.6 0 183.9 149.1 333 333 333s333-149.1 333-333c0.2-24.7-19.8-44.8-44.6-44.8z m0 0M904.4 297.5h-347V451.4c0 24.7-20 44.8-44.8 44.8-24.7 0-44.8-20-44.8-44.8v-153.9h-347c-30.9 0-56-25.1-56-56V-9c0-30.9 25.1-56 56-56h783.6c30.9 0 56 25.1 56 56V241.5c0 14.8-5.9 29.1-16.4 39.6a56.099 56.099 0 0 1-39.6 16.4z m-701.6-226c-18.1 0-34.4 10.9-41.4 27.6-6.9 16.7-3.1 36 9.7 48.8 12.8 12.8 32.1 16.6 48.8 9.7 16.7-6.9 27.6-23.3 27.6-41.4 0.1-24.6-19.9-44.7-44.7-44.7z m135.7 0c-18.1 0-34.4 10.9-41.4 27.6-6.9 16.7-3.1 36 9.7 48.8 12.8 12.8 32.1 16.6 48.8 9.7 16.7-6.9 27.6-23.3 27.6-41.4 0.1-24.6-19.9-44.7-44.7-44.7z m0 0"  horiz-adv-x="1024" />

    
    <glyph glyph-name="-ccsq" unicode="&#59058;" d="M922.571099 844.574662h-102.542177V896H717.594048v-51.425338H307.519229V896h-102.501939v-51.425338H102.515352A102.515352 102.515352 0 0 1 0 742.05931V-25.47123499999998a102.515352 102.515352 0 0 1 102.515352-102.501939h820.055747A102.528765 102.528765 0 0 1 1025.086451-25.47123499999998V742.05931a102.515352 102.515352 0 0 1-102.501939 102.515352zM891.962695-34.86031600000001H133.150582a44.26281 44.26281 0 0 0-44.262811 44.26281V546.390862H936.225506V9.402494000000047a44.26281 44.26281 0 0 0-44.262811-44.26281z m0 0M700.546159 217.826679c-25.095672-7.591743-280.331133-81.456984-280.331132-81.456984s-70.69978-23.68731-122.996961 40.118202l58.037933 24.143351c10.086556-3.420308 19.475637-3.125223 31.936289 0.871843l65.978413 16.350414-98.960914 146.536729s-20.119459 31.828985 49.453631 16.283349c0 0 125.746621-96.291732 148.414545-114.01027 0 0 11.588809-6.612596 32.9825 0L684.061616 299.27025000000003s67.064864 20.468197 82.436131-16.283349c16.229697-38.562297-40.869328-57.56848-65.924762-65.160222z m-414.460861-29.50854c-25.860212 28.878131-30.849838 45.858954-30.849837 45.858954s5.365189 35.302945 49.45363 0c12.876454-10.314576 26.557686-17.436865 35.249293-23.19103z m0 0"  horiz-adv-x="1172" />

    
    <glyph glyph-name="-fysq" unicode="&#59059;" d="M922.571099 844.574662h-102.542177V896H717.594048v-51.425338H307.519229V896h-102.501939v-51.425338H102.515352A102.515352 102.515352 0 0 1 0 742.05931V-25.47123499999998a102.515352 102.515352 0 0 1 102.515352-102.501939h820.055747A102.528765 102.528765 0 0 1 1025.086451-25.47123499999998V742.05931a102.515352 102.515352 0 0 1-102.501939 102.515352zM891.962695-34.86031600000001H133.150582a44.26281 44.26281 0 0 0-44.262811 44.26281V546.390862H936.225506V9.402494000000047a44.26281 44.26281 0 0 0-44.262811-44.26281z m0 0M738.303678 165.73069299999997C735.030913 256.657236 651.347375 325.02315799999997 611.229173 352.64046900000005c16.095567 16.095567 34.203081 38.253799 36.899089 57.809913 1.891229 14.512837-1.059625 27.188096-8.812324 37.730693s-17.557581 15.424919-29.360997 15.424919c-15.559049 0-30.849838-10.220685-39.367076-18.00021-9.65734 18.778162-29.763387 38.522058-58.762234 38.522058-32.727654-0.456041-50.016976-25.377345-56.830766-38.401341-8.262391 7.256418-23.217856 17.933145-39.501205 17.933145-11.092529 0-20.883999-5.083517-29.14639-15.143247-8.43676-10.569423-11.54857-23.808027-9.02693-38.146494 2.682595-19.408572 20.924238-41.258305 37.113695-57.219743-40.238919-26.597925-123.949282-93.005554-127.624436-186.976841-1.730273-47.911139 9.389081-84.702924 33.170282-109.355968 28.408677-29.320759 66.488106-32.48622 81.550875-32.48622h222.011526c15.049356 0 53.128785 3.165462 81.604527 32.499633 23.740962 24.653044 34.873729 61.297286 33.156869 108.91334z m-127.262286 249.803206c-1.341297-9.845122-20.052394-31.225401-37.368543-46.838101l-121.306926 0.174369c-17.638059 15.465158-36.738133 36.899088-38.186734 47.253903-1.059625 6.062664 0.402389 7.913654 1.166929 8.892801a14.633553 14.633553 0 0 0 1.032798 1.153516c3.769045-0.898669 12.326522-6.290684 16.900346-11.253485a30.434035 30.434035 0 0 1 23.59342-10.837682 21.138845 21.138845 0 0 1 4.546997 0.49628l1.703448 0.295086a31.708268 31.708268 0 0 1 23.217856 19.985329v0.107304c0.912082 2.213141 9.389081 21.635125 26.477208 21.863146 15.491984 0 24.143351-17.530756 25.752908-21.138845a30.420622 30.420622 0 0 1 21.742429-20.401132 24.921304 24.921304 0 0 1 8.047784-1.193755c8.262391 0 16.457718 3.634916 23.164204 10.341402 4.694541 5.110343 13.144713 10.730378 17.436865 11.709526l0.281672-0.348738c1.207168-1.609557 2.4814-4.225086 1.676622-10.28775z m-160.647176-84.018862L575.416536 331.313843c22.520381-13.909253 122.40679-80.477837 125.451535-166.911035 1.341297-37.127109-6.31751-64.583464-22.708163-81.61794-18.469664-19.08666-44.39694-21.07178-54.684691-21.07178H401.544169c-10.301163 0-36.215027 2.052185-54.671278 21.085193-16.417479 17.034476-24.04946 44.624961-22.721576 81.980091 3.47396 88.404904 96.291732 149.407105 126.242901 166.80373z m0 0M569.7965 179.747249H531.153725v8.973279h38.696427a18.657445 18.657445 0 1 1 0 37.314891h-16.980824l22.949597 21.098606A22.56062 22.56062 0 1 1 545.277586 280.34454600000004l-33.438542-30.729121L478.400503 280.34454600000004a22.56062 22.56062 0 1 1-30.554752-33.183695L470.795347 226.02200600000003h-15.706591a18.657445 18.657445 0 1 1 0-37.314891h38.696427V179.747249h-38.696427a18.657445 18.657445 0 1 1 0-37.31489h38.696427v-37.556324a18.657445 18.657445 0 0 1 37.31489 0v37.556324h38.696427a18.657445 18.657445 0 1 1 0 37.31489z m0 0"  horiz-adv-x="1140" />

    
    <glyph glyph-name="-el-kaoqin" unicode="&#59171;" d="M903.872 716.48c11.648-11.648 17.792-26.24 18.368-43.776v-593.28c-0.576-17.472-6.72-32.064-18.368-43.776-11.648-11.648-26.24-17.792-43.776-18.368H630.848l-112-112c-2.944-2.304-6.72-3.52-11.392-3.52s-8.448 1.152-11.392 3.52l-112 112H154.88c-17.472 0.576-32.064 6.72-43.776 18.368-11.648 11.648-17.792 26.24-18.368 43.776v593.28c0.576 17.472 6.72 32.064 18.368 43.776 11.648 11.648 26.24 17.792 43.776 18.368h229.248l112-112c2.944-2.944 6.72-4.352 11.392-4.352s8.448 1.472 11.392 4.352l112 112h229.248c17.408-0.576 32-6.72 43.712-18.368z m-135.488-226.048c-1.472 12.8-6.592 24.768-15.296 35.904-8.768 8.192-18.944 11.52-30.656 10.048-11.648-1.472-21.888-6.592-30.656-15.296l-190.72-218.752-112 100.608c-11.648 8.768-23.616 12.8-35.904 12.224-12.224-0.576-22.72-6.4-31.488-17.472-8.192-8.768-11.968-18.944-11.392-30.656 0.576-11.648 6.4-21.888 17.472-30.656l145.28-140.032c2.944-2.944 6.848-5.568 11.84-7.872 4.928-2.368 10.368-3.52 16.192-3.52 16.896 0 28.032 5.568 33.28 16.64l224 252.032c8.128 11.712 11.52 24 10.048 36.8z"  horiz-adv-x="1024" />

    
    <glyph glyph-name="-username" unicode="&#59199;" d="M492.642454 351.50776199999996c138.576752 0 250.922119 112.345367 250.922119 250.924119 0 138.576752-112.344367 250.922119-250.922119 250.922119-138.578752 0-250.924119-112.345367-250.924119-250.923119 0-138.577752 112.345367-250.923119 250.924119-250.923119m329.666273-152.226433C763.454107 261.354874 743.657571 282.663375 635.847097 288.514238H349.42681c-107.810473-5.851863-127.607009-27.159363-186.461629-89.231909-62.510535-64.169496-112.295368-145.404592-88.694922-246.144231 26.184386-65.876456 96.935728-81.138098 163.83616-81.138098h509.062069c66.899432 0 137.699773 15.261642 163.885159 81.138098 23.599447 100.739639-26.185386 181.974735-88.74492 246.144231"  horiz-adv-x="1024" />

    
    <glyph glyph-name="-edit" unicode="&#58951;" d="M707.29 513.3199999999999L497.14 725.44 143.61 375.19000000000005l210.14-212.12 353.54 350.25z m106.06 105.07L603.2 830.51l-70.7-70.05 210.14-212.12 70.71 70.05zM318.4 128.04999999999995L108.26 340.15999999999997 71.89 94.00999999999999l246.51 34.04zM64.03 36.32000000000005v-99.53h895.78v99.53H64.03z"  horiz-adv-x="1024" />

    
    <glyph glyph-name="error" unicode="&#58887;" d="M718.933333 590.933333c-8.533333 8.533333-25.6 8.533333-34.133333 0L512 418.133333l-170.666667 170.666667c-8.533333 8.533333-25.6 8.533333-34.133333 0s-8.533333-25.6 0-34.133333l170.666667-170.666667-170.666667-170.666667c-8.533333-8.533333-8.533333-25.6 0-34.133333s25.6-8.533333 34.133333 0l170.666667 170.666667 172.8-172.8c8.533333-8.533333 25.6-8.533333 34.133333 0s8.533333 25.6 0 34.133333L546.133333 384l172.8 172.8c8.533333 8.533333 8.533333 23.466667 0 34.133333zM512 853.333333C251.733333 853.333333 42.666667 644.266667 42.666667 384s209.066667-469.333333 469.333333-469.333333 469.333333 209.066667 469.333333 469.333333S772.266667 853.333333 512 853.333333z m0-885.333333C281.6-32 96 153.60000000000002 96 384S281.6 800 512 800 928 614.4 928 384 742.4-32 512-32z"  horiz-adv-x="1024" />

    
    <glyph glyph-name="-prient" unicode="&#58880;" d="M846.19776 64.77823999999998H747.9808a39.61856 39.61856 0 0 0-39.60832 39.60832c0 21.85216 17.7408 39.58784 39.60832 39.58784h88.5504V558.5305599999999H187.47392v-414.55104H277.1456a39.6032 39.6032 0 0 0 39.59808-39.58784 39.61344 39.61344 0 0 0-39.59808-39.60832H177.80224c-38.32832 0-69.5296 31.19104-69.5296 69.53984V568.19712c0 38.33856 31.20128 69.53984 69.5296 69.53984h668.39552c38.33856 0 69.5296-31.19616 69.5296-69.53984v-433.87904c0.00512-38.3488-31.18592-69.53984-69.5296-69.53984zM711.87968-32.44032000000004H312.10496c-30.09024 0-54.55872 24.48896-54.55872 54.5792v298.112c0 30.09024 24.46848 54.55872 54.55872 54.55872h399.77472c30.09024 0 54.5792-24.46848 54.5792-54.55872v-298.112c0-30.09024-24.48896-54.5792-54.5792-54.5792z m-375.13216 79.21152h350.51008v248.84224H336.74752v-248.84224z m375.13216 511.75936H312.10496c-30.09024 0-54.55872 24.48896-54.55872 54.5792V745.8662400000001c0 30.08512 24.46848 54.5792 54.55872 54.5792h399.77472c30.09024 0 54.5792-24.49408 54.5792-54.5792v-132.75136c0-30.09024-24.48896-54.58432-54.5792-54.58432z m-375.13216 79.2064h350.51008v83.5072H336.74752v-83.5072zM718.86848 482.1248c0-22.30272 18.08896-40.3968 40.40192-40.3968s40.39168 18.08896 40.39168 40.3968a40.3968 40.3968 0 0 1-80.7936 0z"  horiz-adv-x="1024" />

    
    <glyph glyph-name="-pagehome" unicode="&#58886;" d="M1074.447294 377.11354400000005L564.529246 887.031592a32.030028 32.030028 0 0 1-45.269106 0L9.395475 377.166927a32.083412 32.083412 0 0 1 45.269106-45.32249l50.180378 50.180378v-477.994787a32.030028 32.030028 0 0 1 32.030028-32.030028H947.021166a32.030028 32.030028 0 0 1 32.030028 32.030028V381.97143200000005l50.126994-50.126995a32.030028 32.030028 0 1 1 45.269106 45.269107z m-369.893441-440.946721H379.288917v307.381504c0 39.610468 32.243562 71.800646 71.800646 71.800646h181.61026c39.610468 0 71.85403-32.243562 71.85403-71.800646v-307.381504z m210.490668 0h-146.430612v307.381504a136.020853 136.020853 0 0 1-135.860703 135.860702H451.089563a135.96747 135.96747 0 0 1-135.807319-135.860702v-307.381504H168.851632V446.084871l373.043061 372.989678L914.991138 445.978104v-509.811281z"  horiz-adv-x="1085" />

    
    <glyph glyph-name="-zcsq" unicode="&#58941;" d="M69 799.6v-239.7h884.9V799.6H69z m73.8-276.5h-36.9V-30H917V523.1H142.8z m535-135.9c0-16.7-14.4-30.2-32.1-30.2H378.1c-17.7 0-32.1 13.5-32.1 30.2v13.4c0 16.6 14.4 30.2 32.1 30.2h267.6c17.7 0 32.1-13.5 32.1-30.2v-13.4z m0 0"  horiz-adv-x="1024" />

    
    <glyph glyph-name="yjone" unicode="&#58891;" d="M812.3 127.10000000000002h-37.1v263c0 134.2-109.2 243.3-243.3 243.3h-30.2c-134.2 0-243.3-109.1-243.3-243.3v-263H223c-50.2 0-91-40.8-91-91v-9.4c0-50.2 40.8-91 91-91h589.3c50.2 0 91 40.8 91 91v9.4c0.1 50.2-40.8 91-91 91z m-499.6 263c0 104.2 84.8 189 189 189h30.2c104.2 0 189-84.8 189-189v-263H312.7v263zM849 26.799999999999955c0-20.2-16.4-36.7-36.7-36.7H223c-20.2 0-36.7 16.4-36.7 36.7v9.4c0 20.2 16.4 36.7 36.7 36.7h589.3c20.2 0 36.7-16.4 36.7-36.7v-9.4zM502.8 673.5c-15 0-27.2 12.2-27.2 27.2V805c0 15 12.2 27.2 27.2 27.2S530 820 530 805v-104.3c0-15.1-12.2-27.2-27.2-27.2zM333.9 635.3c-9.4 0-18.5 4.9-23.6 13.6l-52.2 90.3c-7.5 13-3.1 29.6 9.9 37.1s29.6 3 37.1-9.9l52.2-90.3c7.5-13 3.1-29.6-9.9-37.1-4.2-2.5-8.9-3.7-13.5-3.7zM220.5 531.5c-4.6 0-9.3 1.2-13.6 3.6l-90.3 52.2c-13 7.5-17.4 24.1-9.9 37.1 7.5 13 24.1 17.5 37.1 9.9l90.3-52.2c13-7.5 17.4-24.1 9.9-37.1-5-8.6-14.1-13.5-23.5-13.5zM805.3 531.5c-9.4 0-18.5 4.9-23.6 13.6-7.5 13-3.1 29.6 9.9 37.1l90.3 52.2c13 7.5 29.6 3.1 37.1-9.9s3.1-29.6-9.9-37.1l-90.3-52.2c-4.2-2.5-8.9-3.7-13.5-3.7zM681.7 635.3c-4.6 0-9.3 1.2-13.6 3.6-13 7.5-17.4 24.1-9.9 37.1l52.2 90.3c7.5 13 24.1 17.5 37.1 9.9 13-7.5 17.4-24.1 9.9-37.1l-52.2-90.3c-5-8.6-14.1-13.5-23.5-13.5z"  horiz-adv-x="1024" />

    
    <glyph glyph-name="-error" unicode="&#58881;" d="M910.222222 810.666667c17.066667 0 28.444444-11.377778 28.444445-28.444445v-796.444444c0-17.066667-11.377778-28.444444-28.444445-28.444445H113.777778c-17.066667 0-28.444444 11.377778-28.444445 28.444445V782.222222c0 17.066667 11.377778 28.444444 28.444445 28.444445h796.444444m0 85.333333H113.777778C51.2 896 0 844.8 0 782.222222v-796.444444c0-62.577778 51.2-113.777778 113.777778-113.777778h796.444444c62.577778 0 113.777778 51.2 113.777778 113.777778V782.222222c0 62.577778-51.2 113.777778-113.777778 113.777778zM280.689778 534.8408890000001l80.440889 80.440889 382.151111-382.151111-80.440889-80.440889zM280.718222 233.15911100000005L662.812444 615.367111l80.469334-80.440889-382.094222-382.208z"  horiz-adv-x="1024" />

    
    <glyph glyph-name="-do" unicode="&#58950;" d="M424.592912 893.784366A381.980591 381.980591 0 0 1 175.72954 834.53989l215.949774-216.132627a19.565306 19.565306 0 0 0 5.668453-17.005359l-10.605493-74.969863a20.113865 20.113865 0 0 0-17.188212-17.188212l-74.969862-10.605493a19.565306 19.565306 0 0 0-17.005359 5.668453L61.446214 720.256563a383.991977 383.991977 0 0 1 470.115892-561.725407 40.227731 40.227731 0 0 0 43.51909-8.776959l253.983265-254.166118a80.821169 80.821169 0 0 1 114.100474 0l57.23309 57.23309a80.821169 80.821169 0 0 1 0 114.100473l-254.166119 253.983265a40.227731 40.227731 0 0 0-8.776959 43.519091A383.991977 383.991977 0 0 1 424.592912 893.784366z"  horiz-adv-x="1024" />

    


  </font>
</defs>
</svg>
