<?xml version="1.0" encoding="utf-8"?>
<!-- Generator: Adobe Illustrator 22.0.0, SVG Export Plug-In . SVG Version: 6.00 Build 0)  -->
<svg version="1.1" id="图层_1" xmlns="http://www.w3.org/2000/svg" xmlns:xlink="http://www.w3.org/1999/xlink" x="0px" y="0px"
	 viewBox="0 0 186.5 29" style="enable-background:new 0 0 186.5 29;" xml:space="preserve">
<style type="text/css">
	.st0{enable-background:new    ;}
	.st1{fill:#66BF00;}
	.st2{fill:#E6E6E6;}
	.st3{font-family:'ArialMT';}
	.st4{font-size:21px;}
	.st5{fill:#02924B;}
	.st6{fill:#6BC336;}
	.st7{fill:#02924A;}
	.st8{fill:#6BC335;}
</style>
<symbol  id="新建符号" viewBox="-33.1 -9.9 65.2 19.7">
	<g class="st0">
		<path class="st1" d="M-13.2,9.6l-0.2-1.2h2.4l-0.2-1.3h-2.4L-15-0.4h2.5l-0.2-1.2H-15c1.5-3,2.2-4.6,2.2-4.6h-4.9l-0.3,1l-0.2-1.3
			h-2.5l-0.4-2h7.5l-0.2-1.3h-19.2l0.2,1.3h7.2l0.4,2h-2.1l0.2,1.1l-0.5-0.7h-4.7l4.3,4.6h-3.1l0.2,1.2h2.5l1.3,7.5h-2.2l0.2,1.3
			h2.2l0.2,1.3h4.2l-0.2-1.4h5.3l0.2,1.3h4L-13.2,9.6z M-20.1-3l-0.4-2h2.4l-1.4,3.5H-24l-2.8-3.6h2l0.4,2L-20.1-3L-20.1-3z
			 M-22.9,7.1l-0.3-1.7h5.3l0.3,1.7H-22.9z M-23.5,3.8l-0.3-1.5h5.3l0.2,1.4L-23.5,3.8L-23.5,3.8z M-24.2-0.4h5.3l0.2,1.3H-24
			L-24.2-0.4z"/>
		<path class="st1" d="M-1.8,7.8c-0.6-0.9-1-1.6-1.3-2.1c-0.4-0.6-1.1-1.6-2.2-3h2.9C-2.5,2-2.6,1.4-2.8,1C-3,0.5-3.2-0.2-3.7-1.2
			c-0.4-1-0.8-1.9-1.2-2.7c-0.2-0.8-0.7-1.5-1.1-2.2c0.4-0.6,0.7-1.1,1-1.5c0.3-0.3,1-0.5,2-0.6c1,0,4.7,0,11.2,0L8-9.8
			c-7.6,0-11.7,0-12.3,0c-0.7,0-1.2,0.1-1.5,0.3c-0.4,0.2-0.6,0.4-0.8,0.6c-0.2,0.2-0.3,0.4-0.5,0.7C-7.4-8.7-7.7-9.3-8-9.8h-3.6
			c0.4,0.8,0.8,1.4,1.2,1.9s1,1.7,1.9,3.5c-0.2,1-0.4,1.7-0.5,2.3C-9-1.6-9.1-0.6-9.3,0.8h2.1C-7.1,0.1-7-0.6-7-1.4
			C-6.6-0.6-6.4,0-6.3,0.2c0.1,0.3,0.2,0.7,0.4,1.2h-3l0.2,1.2l0.6,0.9c0.8,1,1.7,2.3,2.7,4h-2.8L-8,8.9h6.2L-2,7.8H-1.8z M5.7,9.5
			L5.6,8.6h4.7L9.7,5.3h1.1l-0.2-1.4H9.4L8.8,0.5H4.1L3.8-1.2h5.1L8.7-2.5H3.6L3.3-4.4h5.5L8.6-5.6H3.1L2.8-7.3h-3.7l0.3,1.7h-3.5
			l0.2,1.2h3.5l0.3,1.9h-3.1L-3-1.2h3.1l0.3,1.7h-2.8l0.2,1.3h2.8L1,3.9h-3.3L-2,5.3h3.4l0.3,1.9h-2.8l0.2,1.4H2l0.2,0.9
			C2.1,9.5,5.7,9.5,5.7,9.5z M5.3,7.2L5,5.3h1.4l0.3,1.9H5.3z M4.7,3.9L4.4,1.8h1.4l0.4,2.1H4.7z"/>
		<path class="st1" d="M17.9,4.3c-0.2-1.1-0.6-3.2-1.2-6.2c-0.5-3-0.7-4.7-0.4-5.2s1.2-0.8,2.8-0.7H30l-0.4-2
			c-6.8-0.1-11.1-0.1-12.8,0c-1.8,0.1-2.7,0.9-3.1,2.3c-0.9-0.7-2.1-1.5-3.3-2.4l0.4,2.2c0.9,0.7,1.4,1,1.4,1.1s0.2,0.9,0.5,2.6
			l1.2,6.9h-1.2l0.2,1.4C12.9,4.3,17.9,4.3,17.9,4.3z M18.1,9.5c0.1-1.2,0-2.6,0-4.2h-3.8c0.1,1.6,0.1,3,0,4.2H18.1z M31.9,7.9
			c-0.5-0.8-1.4-1.7-2.4-2.7H32L29.8-7.3h-3.4l-1.2,0.9L25-7.2h-3.4l0.8,4.3H21l-0.8-4.4h-3.5L19,5.2h2.3C21,6,20.8,6.7,20.5,7.3
			h3.8c0.2-0.5,0.4-1.2,0.7-2.1h0.3c1.2,1.1,2.1,2,2.5,2.7h-8.5l0.2,1.3h12.5L31.9,7.9z M21.9,1.7h1.3l0.4,2.4h-1.3L21.9,1.7z
			 M21.6,0.5l-0.4-2.2h1.3l0.4,2.2H21.6z M28.3,4.1H27l-0.4-2.4h1.3L28.3,4.1z M26.3,0.4L26-1.7h1.3l0.4,2.1H26.3z M25.4-5.1
			l1.2-0.8l0.5,3h-1.3L25.4-5.1z"/>
	</g>
</symbol>
<g>
	<path class="st2" d="M50.1,18.6c-1-0.3-2-0.6-3.2-0.8c-0.3,0-0.5-0.2-1-0.3s-0.7-0.3-1-0.5l-1.4-1.2c-0.2-0.1-0.3-0.2-0.3-0.3
		c0-0.2,0.5-0.5,1.6-1.1c0.2-0.1,0.3-0.2,0.3-0.3c0-0.2-0.1-0.3-0.4-0.6c-0.3-0.3-0.5-0.4-0.6-0.4c-0.1,0-0.2,0.1-0.3,0.3
		c-0.1,0.2-0.3,0.5-0.7,0.8c-0.4,0.3-0.6,0.5-0.7,0.5c-0.1,0-0.2-0.1-0.4-0.2c-0.2-0.1-0.3-0.2-0.5-0.3C41.2,14,41,13.9,41,13.8
		s0-0.2,0.1-0.4c0.1-0.2,0.2-0.2,0.2-0.3s0.2-0.1,0.6-0.2c0.4-0.1,0.6-0.1,0.8-0.2c0.1,0,0.3-0.1,0.5-0.2c0.2-0.1,0.4-0.2,0.6-0.2
		c0.2-0.1,0.3-0.2,0.3-0.4s0-0.4-0.1-0.6c-0.1-0.2-0.2-0.3-0.4-0.3c-0.1,0-0.5,0-1.2,0.2c-0.6,0.2-1.2,0.3-1.7,0.5
		c-0.5,0.2-1.2,0.3-1.9,0.5c-0.7,0.2-1.3,0.3-1.5,0.3c-0.2,0-0.3,0.1-0.3,0.3c0,0.1,0.1,0.4,0.2,0.6c0.1,0.3,0.3,0.4,0.5,0.4
		c0,0,0.1,0,0.2-0.1c0-0.1,0.2-0.1,0.4-0.2s0.3-0.1,0.4-0.1c0.1,0,0.1,0.1,0.1,0.2c0,0.3-0.1,0.8-0.4,1.5c-0.3,0.7-0.7,1.4-1.3,1.9
		c-0.5,0.5-1.2,1.1-1.9,1.5c-0.7,0.4-1.7,0.8-2.9,1.3c-0.1,0-0.2,0.1-0.2,0.2s0.1,0.1,0.4,0.2c0.2,0.1,0.6,0.1,1,0.1
		c0.3,0,0.6,0,1.1-0.1c0.4-0.1,0.6-0.2,0.7-0.3c0.1-0.1,0.2-0.2,0.2-0.3c0.1-0.2,0.2-0.3,0.5-0.5c0.3-0.2,0.5-0.3,0.8-0.5
		c0.1-0.1,0.2-0.1,0.2-0.1c0.1,0,0.1,0.1,0.1,0.4v1.5c0,1.3,0.1,2.1,0.2,2.9c0.1,0.7,0.2,1.1,0.3,1.2c0.1,0.1,0.2,0.1,0.3,0.1
		c0.1,0,0.3,0,0.4-0.1c0-0.1,0.2-0.2,1.1,0.1c0.4-0.1,0.7-0.2,0.8-0.2s0.3,0,0.4,0.1c0.5,0.3,1.2,0.7,1.9,1.1s1.2,0.5,1.4,0.5
		c0.2,0,0.3-0.2,0.3-0.3s0-0.3-0.1-0.7s-0.1-0.6-0.1-1v-0.8c0-0.3,0-0.7-0.1-1.2s-0.1-1.1-0.1-1.7c0-1.6,0.1-2.3,0.3-2.3
		c0.1,0,0.4,0.1,0.7,0.4c0.3,0.3,0.7,0.7,1,1.4c0.1,0.2,0.3,0.4,0.6,0.5s1,0.1,1.9,0.1c1,0,1.7-0.1,2.2-0.2c0.5-0.2,0.7-0.3,0.7-0.5
		c0-0.1-0.1-0.2-0.2-0.3S51,18.9,50.1,18.6z M39.3,16.7c0.2-0.3,0.4-0.5,0.5-0.7c0.1-0.2,0.3-0.3,0.4-0.4c0.1-0.1,0.3-0.1,0.5-0.1
		s0.5,0.2,0.9,0.4c0.4,0.3,0.6,0.4,0.6,0.5c0,0-0.1,0.1-0.3,0.1c-0.6,0.1-1.3,0.3-2.1,0.6c-0.3,0.1-0.6,0.2-0.9,0.2
		C38.8,17.2,39.2,17,39.3,16.7z M42.5,23.1c-0.1,0.1-0.2,0.2-0.3,0.2c-0.2,0-0.3,0-0.5,0c-0.1,0-0.1-0.1-0.1-0.2
		c0-0.1-0.1-0.2-0.1-0.4s0-0.4-0.1-0.4c-0.1-0.1-0.2-0.1-0.2-0.1h-0.5c0,0-0.4,0-0.9,0.1c-0.5,0.1-0.8,0.1-0.9,0.1
		c-0.1,0-0.1,0-0.1-0.1c0-0.3,0.1-0.5,0.4-0.6c0.5-0.2,0.9-0.3,1.2-0.5C40.8,21.2,41,21,41,21c0.1,0,0.1-0.1,0.1-0.2
		c0-0.3-0.1-0.4-0.3-0.4c-0.3,0-1.4,0.9-1.4,0.9h-0.2c0,0-0.1-0.7-0.1-0.8c0-0.1,0-0.2,0.1-0.3c0,0,0.2-0.1,0.5-0.2
		c0.3-0.1,0.6-0.3,1-0.4c0.4-0.1,0.6-0.2,0.7-0.3c0.1-0.1,0.1-0.2,0.1-0.3c0-0.1,0-0.2-0.1-0.2c-0.1-0.1-0.3-0.1-0.7-0.1
		s-0.7,0.1-1.1,0.6h-0.2c-0.1-0.4-0.1-0.5-0.1-0.5c0-0.3,0.2-0.5,0.7-0.7c0.5-0.2,0.8-0.3,1.1-0.3c0.3,0,0.5,0.1,0.7,0.2
		c0.2,0.1,0.4,0.8,0.4,2c0.1,1.2,0.3,2.4,0.3,2.4S42.5,23,42.5,23.1z"/>
	<path class="st2" d="M37.3,12.1c0.1,0,0.2-0.1,0.4-0.1c0.7-0.2,1.3-0.4,1.6-0.4c0.3,0,0.6-0.1,1-0.2c0.4-0.1,0.6-0.2,0.7-0.2
		c0.1,0,0.3,0,0.6-0.1c0.3,0,0.5-0.1,0.7-0.2c0.1,0,0.5-0.1,1.2-0.2c0.7-0.1,1.3-0.1,1.8-0.1c0.6,0,1,0.3,1,0.6
		c0,0.3-0.3,0.7-0.9,1.2c-0.1,0.1-0.2,0.2-0.2,0.3c0,0.1,0.3,0.2,0.8,0.2s1-0.1,1.5-0.2c0.5-0.2,0.8-0.2,0.9-0.3
		c0.1-0.1,0.2-0.2,0.2-0.3c0-0.2-0.3-0.5-0.9-1.1c-0.6-0.6-1.1-1-1.5-1.2c-0.4-0.2-0.9-0.3-1.4-0.3c-0.8,0-1.6,0.1-2.4,0.2
		c-0.3,0-0.4-0.1-0.4-0.2c0-0.1,0.1-0.2,0.2-0.3c0.1-0.1,0.3-0.2,0.5-0.3c0.2-0.1,0.7-0.3,1.5-0.6c0.2-0.1,0.3-0.3,0.3-0.6
		c0-0.3-0.1-0.5-0.1-0.6C44.2,7,44.1,7,44,7c-0.5,0-1.2,0.1-1.9,0.2c-0.2,0.1-0.3,0-0.3-0.2c0-0.3,0-0.4,0.1-0.5
		C42,6.5,42,6.4,42,6.3c0-0.2-0.2-0.3-0.5-0.4c-0.3-0.1-0.6-0.1-0.9-0.1c-0.3,0-0.5,0-0.5,0.1C40,6,40,6.1,40,6.3c0,1.1,0,2-0.1,2.8
		c0,0.8-0.1,1.2-0.2,1.3c-0.1,0.1-0.5,0.2-1.2,0.5s-1.1,0.4-1.2,0.4c-0.2,0-0.2,0-0.3,0c-0.1,0-0.1,0.1-0.1,0.2
		c0,0.1,0.1,0.2,0.1,0.4C37,12,37.1,12.1,37.3,12.1z"/>
	<path class="st2" d="M35.5,15.5c0,0.1,0.2,0.3,0.6,0.6c0.4,0.3,0.7,0.4,0.8,0.4c0.2,0,0.3-0.1,0.4-0.4c0.2-0.2,0.4-0.6,0.8-1.1
		c0.1-0.1,0.1-0.2,0.1-0.3c0-0.1-0.1-0.2-0.4-0.3c0,0-0.2,0.1-0.5,0.2c-0.3,0.2-0.8,0.3-1.4,0.5C35.6,15.2,35.5,15.4,35.5,15.5z"/>
	<path class="st2" d="M35.3,13.9C35.8,14,36,14,36.3,14s0.3-0.1,0.3-0.3v-0.5c0-0.3,0-0.6,0.1-0.8c0.1-0.3,0.1-0.4,0.1-0.6
		c0-0.1-0.1-0.2-0.2-0.3c-0.2,0-0.5,0.2-1.1,0.7c-0.5,0.5-0.8,0.9-0.8,1.2c0,0.2,0,0.2,0.1,0.3C34.8,13.7,35,13.8,35.3,13.9z"/>
	<path class="st2" d="M59,16c0,0.3,0.1,0.4,0.3,0.4c0.1,0,0.2-0.1,0.3-0.1c0.1,0,0.3-0.1,0.5-0.1c0.2-0.1,0.4-0.1,0.7-0.1
		c0.2,0,0.5,0,0.9-0.1c0.4,0,0.8-0.2,1.2-0.3c0.4-0.1,0.7-0.2,0.9-0.2c0.2,0,0.3,0.1,0.4,0.1c0.1,0.1,0.2,0.1,0.3,0.1
		c0.2,0,0.3-0.1,0.3-0.4s-0.2-0.6-0.3-0.9c-0.1-0.3-0.4-0.5-0.8-0.5c-0.4,0-1.1,0.1-2.1,0.2c-1,0.2-1.6,0.4-1.8,0.5
		c-0.2,0.1-0.5,0.2-0.7,0.2c-0.2,0-0.3,0.1-0.3,0.3c0,0,0,0.2,0.1,0.3C59,15.5,59,15.7,59,16z"/>
	<path class="st2" d="M68.9,15c-0.3-0.1-0.7-0.4-1.4-0.9S66,13,65.3,12.3c-0.7-0.7-1.4-1.3-1.9-1.9c-0.5-0.6-0.8-0.9-0.8-1
		c-0.1,0-0.1-0.2-0.1-0.2s0.1-0.2,0.2-0.3c0.1-0.1,0.2-0.2,0.3-0.3c0.1-0.1,0.2-0.2,0.2-0.3c0-0.1-0.2-0.3-0.5-0.6
		c-0.3-0.3-0.6-0.4-0.8-0.4c-0.2,0-0.3,0.1-0.5,0.5c-0.3,0.5-0.6,1.1-1,1.6c-0.1,0.2-0.3,0.4-0.5,0.7c-0.2,0.3-0.4,0.6-0.6,1
		s-0.4,0.8-0.8,1.3s-0.7,1-1.1,1.6c-0.5,0.8-1,1.6-1.7,2.2c-0.6,0.6-1.5,1.3-2.6,2.1c-0.2,0.1-0.3,0.3-0.3,0.4
		c0,0.1,0.2,0.2,0.7,0.2c0.8,0,1.4-0.2,2-0.5c0.5-0.3,0.9-0.7,1-1c0.1-0.3,0.3-0.8,0.8-1.5c0.4-0.7,0.8-1.2,1-1.4
		c0.3-0.2,0.7-0.6,1.2-1.2c0.6-0.6,1-1.1,1.4-1.6c0.2-0.3,0.4-0.4,0.6-0.4c0.2,0,0.5,0.1,1,0.2c0.5,0.1,0.9,0.4,1.3,0.8
		c0.4,0.4,0.9,0.9,1.6,1.3c0.7,0.4,1.2,0.8,1.5,1.2c0.3,0.4,0.4,0.8,0.5,1.2c0.1,0.4,0.2,0.6,0.2,0.7c0,0.1,0.5,0.2,1.4,0.4
		c0.9,0.1,1.7,0.2,2.3,0.2c0.6,0,1,0,1.1,0c0.1,0,0.2,0,0.2-0.1C72.5,16.8,71.3,16.1,68.9,15z"/>
	<path class="st2" d="M65.5,17.7c-0.7-0.3-1.4-0.5-2.3-0.5c-0.9,0-1.8,0.1-2.6,0.4c-0.8,0.3-1.4,0.4-1.7,0.5
		c-0.3,0.1-0.5,0.1-0.7,0.2c-0.1,0.1-0.3,0.2-0.3,0.3c-0.1,0.1-0.1,0.4-0.1,0.8c0,0.4,0.1,0.9,0.4,1.4c0.4,0.6,0.7,1.2,1,1.8
		c0.1,0.3,0.2,0.4,0.4,0.4c0.1,0,0.1-0.1,0.2-0.1c0.1,0,0.7-0.1,2.1-0.2c1.4-0.1,2.1-0.2,2.4-0.2c0.2,0,0.4,0,0.5-0.1
		c0-0.1,0.1-0.3,0.1-0.5c0.1-0.5,0.2-0.8,0.3-1c0.1-0.1,0.3-0.3,0.4-0.5c0.2-0.2,0.3-0.4,0.3-0.5c0-0.1,0.1-0.2,0.2-0.4
		c0.1-0.2,0.2-0.3,0.3-0.4c0.1-0.1,0.2-0.2,0.2-0.3C66.5,18.5,66.2,18.3,65.5,17.7z M63.8,20c0,0.3-0.1,0.6-0.2,0.7
		c-0.1,0.2-0.2,0.3-0.3,0.3c-0.1,0-0.5,0.1-1.1,0.2c-0.6,0.1-1,0.1-1.2,0.1c-0.2,0-0.4,0-0.4,0c-0.2-0.1-0.3-0.1-0.3-0.2
		c-0.1-0.1-0.1-0.3-0.2-0.6C60,20.2,60,19.9,60,19.7s0-0.4,0.2-0.5c0.1-0.1,0.5-0.2,1.2-0.4c0.7-0.1,1.1-0.2,1.4-0.2s0.6,0,0.8,0.1
		c0.2,0.1,0.3,0.3,0.3,0.5C63.8,19.5,63.8,19.7,63.8,20z"/>
	<path class="st2" d="M88.1,15.1c-0.4-0.2-1.1-0.3-1.8-0.4c-0.2,0-0.3,0-0.3-0.1C86,14.5,86,14.2,86,13.8c0-1.3,0.1-2.5,0.2-3.5
		c0.1-1,0.3-1.8,0.6-2.2c0.1-0.1,0.1-0.2,0.1-0.3c0-0.1-0.3-0.3-0.9-0.5C85.5,7.1,85,7,84.8,7S84.3,7.1,84,7.1
		c-0.3,0.1-0.6,0.1-0.9,0.1c-0.3,0-0.7,0.1-1.2,0.2S81,7.6,80.7,7.6c-0.3,0-0.4,0.1-0.5,0.4C80,8.2,80,9.2,80,10.8
		c0,1.6,0.2,2.8,0.5,3.5c0,0.1,0,0.1,0,0.2c0,0.1-0.1,0.1-0.1,0.2c0,0.1-0.3,0.3-0.8,0.8c-0.5,0.4-1.1,0.8-1.6,1.2
		c-0.5,0.4-0.9,0.6-1.2,0.7c-0.3,0.1-0.4,0.2-0.4,0.3s0.2,0.1,0.5,0.2c0.3,0.1,0.6,0.1,0.8,0.1c0.5,0,0.9-0.1,1.1-0.3
		c0.4-0.4,0.8-0.8,1.1-1s0.6-0.4,0.7-0.5c0.1-0.1,0.3-0.1,0.5-0.1c0.2,0,0.3,0,0.3,0.1s-0.1,0.2-0.2,0.4c-0.1,0.2-0.3,0.4-0.4,0.5
		c-0.1,0.1-0.4,0.4-0.8,0.8c-0.4,0.4-1.1,1-1.9,1.6c-0.3,0.2-0.4,0.4-0.4,0.5c0,0.1,0.1,0.2,0.4,0.2c0.2,0,0.7,0,1.2-0.2
		c0.6-0.1,0.9-0.3,1-0.6c0.1-0.1,0.2-0.3,0.5-0.6c0.2-0.3,0.5-0.5,0.8-0.7c0.3-0.1,0.8-0.8,1.5-1.9c0.1-0.1,0.2-0.2,0.4-0.2
		c0.1,0,0.2,0.1,0.2,0.3c0,0.3-0.1,0.7-0.3,1.2s-0.6,1-1,1.6c-0.4,0.6-0.9,1.1-1.4,1.5s-1.1,0.9-1.8,1.3c-0.3,0.1-0.4,0.2-0.4,0.3
		c0,0.1,0.1,0.1,0.3,0.2c0.2,0.1,0.5,0.1,0.7,0.1c0.2,0,0.7-0.1,1.5-0.5c0.1-0.1,0.1-0.1,0.2-0.1c0.1,0,0.2,0.1,0.2,0.1
		c0.7,0.7,1.4,1.3,2.1,1.7c0.6,0.5,1,0.7,1.1,0.7c0.1,0,0.5-0.4,1-1.1c0.6-0.7,1.1-1.6,1.6-2.7s0.9-2.2,1.2-3.2
		c0.1-0.3,0.2-0.5,0.3-0.7c0.1-0.2,0.1-0.3,0.1-0.4c0-0.2,0-0.3-0.1-0.8C88.9,15.4,88.6,15.3,88.1,15.1z M81.5,12.7
		c-0.1,0-0.2,0-0.2-0.1c-0.1,0-0.1-0.2-0.1-0.4c0-0.2,0.1-0.3,0.1-0.4c0.1-0.1,0.3-0.2,0.6-0.4c0.3-0.2,0.6-0.3,0.8-0.4
		c0.2,0,0.3-0.1,0.4-0.2c0.1-0.1,0.1-0.2,0.1-0.4s0-0.3-0.1-0.4c-0.1-0.1-0.2-0.1-0.4-0.1c-0.2,0-0.5,0-0.9,0.1
		c-0.1,0-0.2,0-0.2-0.2c0-0.2,0.1-0.4,0.2-0.7c0.2-0.3,0.4-0.5,0.7-0.6c0.3-0.1,0.6-0.2,0.9-0.2c0.3,0,0.5,0.1,0.6,0.3
		c0.1,0.2,0.2,0.8,0.2,1.6c0,0.6-0.2,1-0.2,1.4c0,0.4,0,0.6-0.1,0.7c-0.1,0.1-0.2,0.1-0.3,0.1C83,12.4,82.3,12.5,81.5,12.7z
		 M83.1,15.1c-0.2,0.1-0.3,0-0.3-0.1c0-0.2-0.1-0.5-0.3-0.8v-0.1c0-0.2,0.2-0.3,0.6-0.3c0.3,0,0.7,0.1,1,0.5
		c0.3,0.3,0.5,0.5,0.5,0.6c0,0.1-0.1,0.1-0.2,0.1C84,15,83.6,15.1,83.1,15.1z M86.3,18.8c-0.2,0.7-0.5,1.5-0.9,2.1
		c-0.4,0.6-0.7,1-0.9,1.2c-0.1,0.1-0.3,0.2-0.5,0.2c-0.1,0-0.2,0-0.6,0.1c-0.2-0.1-0.5-0.2-0.8-0.3c-0.3-0.1-0.4-0.2-0.4-0.3
		c0,0,0-0.1,0.1-0.1c0.2-0.2,0.3-0.4,0.3-0.7c0-0.4,0.2-0.7,0.5-1c0.6-0.6,1.1-1.2,1.4-1.6c0.3-0.4,0.6-1.1,1-2
		c0.1-0.2,0.2-0.3,0.4-0.3c0.1,0,0.3,0.1,0.5,0.2c0.2,0.1,0.3,0.3,0.3,0.6C86.6,17.4,86.4,18.1,86.3,18.8z"/>
	<path class="st2" d="M99.5,13c0.4,0,0.8-0.1,1.2-0.3c0.4-0.2,1-0.5,1.6-1l0.7-0.4c0.2-0.1,0.3-0.2,0.3-0.4s-0.2-0.5-0.6-1
		c-0.4-0.5-0.7-0.7-0.9-0.7c-0.1,0-0.2,0-0.2,0.1c0,0.2-0.1,0.2-0.2,0.3c-0.1,0-0.5,0.5-1.3,1.4c-0.8,0.9-1.2,1.5-1.2,1.7
		S99,13,99.5,13z"/>
	<path class="st2" d="M106.3,10.9c0.2,0.1,0.4,0.2,0.7,0.3c0.4,0.2,0.9,0.3,1.6,0.3c0.2,0,0.4,0,0.6-0.1c0.1-0.1,0.2-0.1,0.2-0.2
		c0,0,0-0.2-0.1-0.3c-0.1-0.1-0.4-0.4-0.9-0.9s-0.9-0.8-1.1-1s-0.4-0.4-0.5-0.6c-0.1-0.1-0.2-0.2-0.4-0.2c-0.4,0-0.6,0.2-0.7,0.5
		c-0.1,0.3-0.1,0.6-0.1,0.9c0,0.2,0.1,0.5,0.2,0.8C105.9,10.7,106.1,10.8,106.3,10.9z"/>
	<path class="st2" d="M113.9,18.6c-0.6-0.4-1.5-0.8-2.6-1.3c-1.1-0.5-2-1-2.6-1.6c-0.4-0.4-0.9-0.8-1.3-1.1c-0.5-0.3-0.8-0.6-1-0.8
		s-0.5-0.5-0.8-0.7c-0.3-0.2-0.6-0.4-0.7-0.6c-0.3-0.3-0.5-0.4-0.6-0.4c-0.2,0-0.4,0.2-0.8,0.4c-0.8,1.1-1.4,1.7-1.6,2
		c-0.3,0.2-0.5,0.5-0.8,0.7s-0.7,0.7-1.4,1.5c-0.7,0.8-1.7,1.5-3.2,2.1c-0.9,0.4-1.4,0.7-1.6,0.8c-0.2,0.1-0.3,0.2-0.3,0.3l0.1,0.1
		c0.1,0,0.2,0.1,0.6,0.1c0.4,0.1,0.7,0.1,1.1,0.1s0.8-0.1,1.2-0.3c0.5-0.2,0.8-0.4,1.3-0.7c0.5-0.3,0.7-0.5,0.7-0.7
		c0.1-0.3,0.2-0.5,0.3-0.8c0.1-0.3,0.3-0.6,0.8-0.8s1-0.6,1.6-1.1c0.7-0.5,1.1-0.9,1.4-1.2s0.5-0.5,0.7-0.5c0.1,0,0.3,0.1,0.7,0.3
		c0.4,0.2,0.7,0.5,1,0.8c0.3,0.4,0.6,0.6,0.9,0.7c0.6,0.4,1.1,0.7,1.4,1c0.3,0.4,0.4,0.8,0.4,1.3c0,0.3,0,0.4-0.1,0.4
		c-0.1,0-0.3-0.1-0.5-0.3s-0.5-0.4-1-0.6c-0.5-0.2-0.9-0.3-1.4-0.3c-0.1,0-0.3,0.1-0.5,0.1s-0.5,0-1,0.1c-0.5,0-0.9,0.1-1.2,0.1
		s-0.8,0.2-1.4,0.3c-0.6,0.1-1,0.3-1.1,0.4c-0.1,0.1-0.1,0.4-0.1,0.8c0,1.1,0.3,2.2,1,3.1c0.7,0.9,1.2,1.4,1.4,1.4
		c0,0,0.1-0.1,0.2-0.1c0.1-0.1,0.5-0.1,1.2-0.2c0.7-0.1,1.2-0.1,1.6-0.1c0.3,0,0.6,0,0.7,0c0.1,0,0.2,0,0.3,0c0.3,0,0.5-0.2,0.5-0.5
		s0.1-0.8,0.2-1.2c0.1-0.4,0.2-0.7,0.3-0.9c0.1-0.1,0.3-0.4,0.5-0.9c0.1-0.2,0.2-0.5,0.4-0.6c0.2-0.1,0.3-0.2,0.4-0.2
		s0.4,0.1,0.8,0.2c0.4,0.1,0.7,0.2,1,0.3c0.2,0.1,0.6,0.2,1.2,0.3c0.5,0.1,1,0.1,1.5,0.1c0.7,0,1.1-0.1,1.1-0.4
		C114.8,19.3,114.5,19,113.9,18.6z M105.5,20.2c-0.1,0.5-0.4,0.8-0.9,0.9s-0.9,0.2-1.2,0.2c-0.4,0-0.7-0.1-0.8-0.4
		c-0.1-0.2-0.2-0.5-0.2-0.8s0.1-0.7,0.3-1s0.5-0.6,1-0.7c0.5-0.1,0.9-0.2,1.2-0.2c0.5,0,0.8,0.3,0.8,0.9
		C105.8,19.4,105.7,19.8,105.5,20.2z"/>
</g>
<text transform="matrix(1 0 0 1 114.7341 24.0844)" class="st3 st4"> </text>
<use xlink:href="#新建符号"  width="65.2" height="19.7" id="XMLID_1_" x="-33.1" y="-9.9" transform="matrix(1 0 0 -1 151.55 15.2948)" style="overflow:visible;"/>
<path class="st5" d="M11.5,26.7c-2.2-0.7-3.8-2-4.7-4.1c-1.3-3.6-0.2-9,4.7-10.9c1.3-0.5,2.5-0.9,3.8-1.4c0.3-0.1,0.7-0.3,1.1-0.5
	c2.9-1,2.5-4.8,0.7-6.1c-0.3-0.2-0.6-0.5-0.9-0.8c0.4,0.1,0.8,0.2,1.1,0.3c2.1,0.6,3.8,1.8,4.3,4.1c0.5,2-0.2,4.7-3,5.6
	c-2.1,0.7-4.1,1.4-6.1,2.2c-1.8,0.7-3.2,2-3.8,3.8C8.1,21,8.6,23,9.9,24.7C10.4,25.4,10.9,25.9,11.5,26.7z"/>
<path class="st6" d="M20.7,3.8c1.4,0.3,2.6,1,3.4,2.1c1.7,2.2,1.8,4.8,1.1,7.4c-0.7,2.5-2.3,4.3-4.7,5.3c-1.3,0.5-2.6,0.9-3.8,1.4
	c-0.5,0.2-1,0.4-1.5,0.6c-2.5,1.1-2.1,4.8-0.2,6.1c0.2,0.2,0.4,0.3,0.7,0.5c-2.6,0.2-5.5-2.5-5.6-5.1c-0.1-2.5,1-4,3.2-4.7
	c0.7-0.2,1.5-0.5,2.3-0.7c1.7-0.6,3.5-1.1,5.1-2.2c2.7-1.8,3.6-4.9,2.1-7.8c-0.5-0.9-1.1-1.7-1.7-2.5C20.8,4.1,20.7,4,20.7,3.8z"/>
<path class="st7" d="M5.8,22c-1-1.3-1.7-2.7-2-4.3c-0.6-2.6-0.3-5.1,0.7-7.5c1.4-3.2,3.7-5.5,7-6.7c1.1-0.4,2.4-0.6,3.6-0.2
	C17,3.9,18,5.8,17,7.4c-0.6,1-1.7,1.2-2.7,1.4c-3.3,0.6-6.1,2.2-8,5.1c-1.2,1.8-1.3,3.8-0.9,5.8C5.5,20.5,5.7,21.2,5.8,22z"/>
<path class="st8" d="M25.9,8.2c0.8,1.1,1.4,2.2,1.7,3.4C29,16,28,19.9,25,23.3c-1.5,1.7-3.3,3-5.6,3.6c-1.4,0.3-2.8,0.3-4-0.7
	c-0.8-0.6-1.1-1.6-1-2.6c0.2-1,0.8-1.6,1.7-1.9c0.7-0.2,1.4-0.3,2.1-0.5c2.5-0.6,4.5-1.8,6.2-3.7s2.2-4.1,1.9-6.6
	C26.3,10.1,26.2,9.2,25.9,8.2z"/>
</svg>
